<svg width="611" height="497" viewBox="0 0 611 497" fill="none" xmlns="http://www.w3.org/2000/svg">
<path d="M447.505 463.64C368.571 463.64 304.354 399.423 304.354 320.489C304.354 241.554 368.571 177.355 447.505 177.355C526.44 177.355 590.656 241.572 590.656 320.506C590.656 399.441 526.44 463.657 447.505 463.657V463.64ZM447.505 180.86C370.498 180.86 307.859 243.499 307.859 320.489C307.859 397.479 370.498 460.136 447.505 460.136C524.513 460.136 587.152 397.496 587.152 320.489C587.152 243.482 524.495 180.86 447.505 180.86Z" fill="#DBCBB4"/>
<path d="M447.488 390.749C408.748 390.749 377.244 359.228 377.244 320.506C377.244 281.783 408.765 250.262 447.488 250.262C486.211 250.262 517.749 281.783 517.749 320.506C517.749 359.228 486.228 390.749 447.488 390.749ZM447.488 251.996C409.712 251.996 378.996 282.729 378.996 320.488C378.996 358.247 409.729 388.98 447.488 388.98C485.247 388.98 515.997 358.247 515.997 320.488C515.997 282.729 485.264 251.996 447.488 251.996Z" fill="#DBCBB4"/>
<path d="M447.492 453.964C373.901 453.964 314.03 394.093 314.03 320.503C314.03 246.912 373.901 187.023 447.492 187.023C521.082 187.023 580.953 246.895 580.953 320.485C580.953 394.075 521.082 453.947 447.492 453.947V453.964ZM447.492 188.776C374.865 188.776 315.782 247.858 315.782 320.485C315.782 393.112 374.865 452.194 447.492 452.194C520.119 452.194 579.201 393.112 579.201 320.485C579.201 247.858 520.136 188.776 447.492 188.776Z" fill="#DBCBB4"/>
<path d="M403.549 203.473L400.284 204.746L406.684 221.151L409.948 219.878L403.549 203.473Z" fill="#DBCBB4"/>
<path d="M488.314 420.749L485.05 422.023L491.446 438.411L494.71 437.137L488.314 420.749Z" fill="#DBCBB4"/>
<path d="M496.219 205.355L489.152 221.484L492.362 222.891L499.429 206.762L496.219 205.355Z" fill="#DBCBB4"/>
<path d="M402.65 419L395.59 435.113L398.8 436.52L405.859 420.407L402.65 419Z" fill="#DBCBB4"/>
<path d="M561.988 269.685L545.817 276.656L547.205 279.874L563.375 272.903L561.988 269.685Z" fill="#DBCBB4"/>
<path d="M347.806 362.045L331.636 369.016L333.023 372.234L349.194 365.263L347.806 362.045Z" fill="#DBCBB4"/>
<path d="M548.509 358.766L547.228 362.027L563.601 368.46L564.882 365.199L548.509 358.766Z" fill="#DBCBB4"/>
<path d="M331.408 273.465L330.127 276.727L346.516 283.166L347.798 279.904L331.408 273.465Z" fill="#DBCBB4"/>
<path fill-rule="evenodd" clip-rule="evenodd" d="M599 320.487L490.734 338.377L516.666 389.662L465.381 363.73L447.491 471.996L429.619 363.73L379.227 389.662L404.266 338.377L296 320.487L404.266 302.615L374.129 246.669L429.619 277.262L447.491 168.996L465.381 277.262L521.327 246.669L490.734 302.615L599 320.487ZM447.49 320.49V320.491L447.491 320.489L447.505 320.483H448.381L448.386 320.488L448.384 320.483H448.39L448.383 320.48L448.248 320.166L485.67 304.177L516.665 251.332L448.118 319.862L447.924 319.409L462.944 281.978L447.49 182.176V318.393L432.073 282.326L382.54 253.941L447.49 319.583V320.123L409.878 305.047L310.075 320.483H447.49V320.49ZM447.749 319.845L447.618 320.174L447.752 320.228L447.941 320.039L447.749 319.845ZM448.121 320.22L447.933 320.3L448.375 320.477L448.121 320.22ZM447.493 320.483H447.496L447.491 320.489L447.493 320.483ZM585.825 320.488H448.386H448.385H447.51L447.645 320.805L410.223 336.818L384.326 384.81L447.773 321.103L447.962 321.546L432.932 359.018L448.386 458.821V322.538L463.822 358.668L512.164 384.81L448.386 321.36V320.84L486.022 335.942L585.825 320.488ZM447.51 320.488L447.961 320.67L447.773 320.75L447.51 320.488ZM447.949 320.926L448.136 321.111L448.264 320.791L448.135 320.739L447.949 320.926Z" fill="#DBCBB4"/>
</svg>
