<svg width="17" height="17" viewBox="0 0 17 17" fill="none" xmlns="http://www.w3.org/2000/svg">
<path d="M16.8435 12.9057C16.2857 12.4271 15.7192 11.9592 15.1555 11.4853C14.2191 10.6973 13.2797 9.91403 12.3535 9.11533C12.1172 8.91066 11.8251 8.76908 11.6578 8.4813V8.48592C11.6211 8.57056 11.806 8.6475 11.6857 8.71368C11.5932 8.76446 11.5462 8.63211 11.4802 8.57671C11.2761 8.40282 11.0692 8.23354 10.8696 8.05502C10.7169 7.91806 10.5364 7.79956 10.8065 7.57181C10.9591 7.44254 11.1367 7.30404 11.1895 7.07628C11.1602 7.09474 11.1323 7.11321 11.1029 7.13014C11.0897 7.14091 11.0751 7.15168 11.0619 7.16246C11.0398 7.19016 11.0178 7.2194 10.9958 7.2471C10.9488 7.26095 10.9547 7.36559 10.8754 7.3225C10.9048 7.28557 10.9342 7.24864 10.9635 7.21324C10.9899 7.18862 11.0149 7.164 11.0413 7.14091C11.0516 7.12706 11.0633 7.11167 11.0736 7.09782C11.1264 7.04858 11.1793 7.00087 11.2321 6.95163L11.2262 6.9547C11.2365 6.93316 11.2439 6.90854 11.2585 6.89315C11.9117 6.20526 12.6074 5.55584 13.2092 4.82332C13.7758 4.13388 14.3482 3.45369 14.9442 2.7935C14.9838 2.74887 15.0087 2.69039 15.041 2.63807C14.9867 2.66884 14.9236 2.69039 14.881 2.73502C14.2103 3.45523 13.5424 4.17697 12.8731 4.89872C12.5194 5.30807 12.2258 5.82207 11.7943 6.10061C11.235 6.46225 10.8945 7.0101 10.4322 7.44715C10.3823 7.49486 10.3177 7.61182 10.2516 7.53333C10.1944 7.46562 10.2942 7.38098 10.347 7.32404C10.5687 7.07782 10.8417 6.87622 10.9532 6.53766C10.9782 6.65923 11.0134 6.59152 11.053 6.54382C11.4449 6.07599 11.8412 5.61431 12.3227 5.24344C12.3374 5.22959 12.3506 5.21728 12.3652 5.20343C12.3697 5.21728 12.3755 5.22959 12.3799 5.24344C12.4709 5.10494 12.694 5.09416 12.6926 4.85717C12.6926 4.77407 12.7806 4.84948 12.8291 4.84332C12.7909 4.69251 12.9157 4.61864 12.9714 4.51246C12.9362 4.51861 12.8995 4.52477 12.8643 4.53246C12.8819 4.48322 12.8922 4.42782 12.9201 4.38473C13.2474 3.86304 13.8022 3.60912 14.2176 3.18746C14.6726 2.72578 15.0792 2.23641 15.3962 1.66394C15.3874 1.65316 15.3786 1.64393 15.3713 1.63316C15.1423 1.76089 15.0498 2.09021 14.7416 2.09945C15.0997 1.80705 15.3493 1.41002 15.6472 1.05914C15.6825 1.01759 15.6736 0.862165 15.6546 0.856009C15.3801 0.757519 15.521 0.31893 15.1702 0.252757C14.9412 0.209667 14.8209 -0.20276 14.473 0.126566C13.8022 0.762136 13.0859 1.34384 12.3887 1.94863C12.3975 1.95787 12.4063 1.96864 12.4152 1.97787C12.4122 1.98865 12.4078 1.99942 12.4049 2.01019L12.4078 2.00557C12.3476 2.15639 12.2185 2.23487 12.0996 2.32413C11.8104 2.54265 11.5022 2.73809 11.238 2.9874C10.5012 3.67837 9.7834 4.39242 9.05832 5.09724L9.06272 5.09416C8.83815 5.36193 8.61945 5.63586 8.3846 5.89286C8.31415 5.9698 8.21874 5.95134 8.1248 5.86823C7.2955 5.13264 6.5528 4.3047 5.7734 3.51678C5.16867 2.90584 4.52578 2.33182 3.91811 1.72088C3.90344 1.70549 3.85793 1.72549 3.82711 1.72857C3.84619 1.7455 3.86527 1.76243 3.88435 1.77782C3.85647 1.77166 3.82858 1.76704 3.80069 1.76089C3.6407 1.61161 3.48365 1.4608 3.32072 1.3146C3.2899 1.2869 3.24146 1.27767 3.20183 1.2592C3.22238 1.29306 3.23853 1.33153 3.26348 1.36077C3.5541 1.68702 3.84326 2.01635 4.13975 2.3349C4.20433 2.40415 4.15443 2.38722 4.11773 2.39953C3.9005 2.47802 3.87702 2.24564 3.77867 2.15177C3.47778 1.86246 3.22825 1.50851 2.81874 1.36385C2.78791 1.35308 2.73948 1.36693 2.71306 1.38847C2.67049 1.42079 2.65581 1.45772 2.70719 1.51312C2.80112 1.61469 2.88185 1.73011 2.96699 1.84091C2.63233 1.50543 2.18906 1.28075 2.00265 0.803686C1.99824 0.794453 1.95715 0.786758 1.9454 0.795992C1.71349 0.968349 1.70469 0.691346 1.60047 0.608245C1.56231 0.577467 1.6313 0.423576 1.50066 0.498982C1.41406 0.548227 1.43755 0.632867 1.47424 0.717507C1.50213 0.779064 1.60781 0.803686 1.50653 0.928338C1.33921 1.13609 1.0251 0.782141 0.925289 1.1284C0.797591 0.948343 0.74475 1.53005 0.556873 1.16379C0.512839 1.07915 -0.0243719 1.64085 0.00791945 1.82244C0.10039 2.34721 0.486419 2.67962 0.774106 3.06896C1.47277 4.01231 2.2419 4.8941 2.99194 5.79283C3.59667 6.51765 4.23809 7.20247 4.86044 7.90883C4.88832 7.93961 4.94116 8.16429 5.06739 7.97654C5.06739 7.97654 5.10702 7.99501 5.12023 8.01193C5.12904 8.02271 5.12023 8.04733 5.12023 8.0658C5.08647 8.06118 5.0307 8.0027 5.03217 8.08734C5.03217 8.11966 5.09822 8.18429 5.12611 8.17968C5.43728 8.12889 5.4681 8.50131 5.68827 8.58595C5.71616 8.59672 5.73964 8.62596 5.69854 8.67213C5.26261 9.16458 4.82521 9.65395 4.39808 10.1556C3.59373 11.099 2.78791 12.0408 2.00118 12.9995C1.34361 13.8028 0.769703 14.68 0.0622277 15.4402C0.0431464 15.4618 -0.072809 15.5187 0.0710344 15.5341C0.00351608 15.7311 0.261847 15.6572 0.276525 15.8204C0.298542 16.0527 0.486419 16.1543 0.680168 16.2328C0.749154 16.2605 0.994275 16.1743 0.799059 16.4098C0.759428 16.4575 0.788784 16.5129 0.860706 16.4959C1.02657 16.4575 1.09702 16.5744 1.15867 16.6975C1.28343 16.9438 1.47277 16.8884 1.66652 16.8253C1.69441 16.8253 1.74138 16.8114 1.74578 16.8222C1.74725 16.8268 1.74725 16.8299 1.74872 16.833C1.79862 16.7883 1.84853 16.7945 1.87201 16.9114C1.90137 17.053 1.95421 16.993 2.00411 16.9484C2.4694 16.536 2.84663 16.0312 3.27962 15.5849C3.67006 15.1817 4.03554 14.737 4.34964 14.2476C4.62119 13.8244 4.98667 13.4551 5.35802 13.118C5.67066 12.8318 5.87028 12.4517 6.17998 12.1701C6.21814 12.1347 6.24456 12.0546 6.30768 12.1024C6.36492 12.1454 6.35318 12.2116 6.30621 12.2686C6.05522 12.5686 5.80863 12.8749 5.55323 13.1704C5.30664 13.4566 5.00721 13.6936 4.82081 14.0368C4.91328 14.1491 4.97199 14.0537 5.03363 13.9921C5.46223 13.5628 5.83358 13.0703 6.34144 12.7318C6.36052 12.7118 6.37813 12.6933 6.39721 12.6733C6.41336 12.6641 6.4295 12.6548 6.44565 12.644C6.49262 12.7241 6.43097 12.7441 6.3796 12.7702C5.91578 13.2627 5.43141 13.7367 5.03951 14.2984C5.14372 14.3261 5.2127 14.2768 5.28169 14.1968C5.7734 13.6182 6.32089 13.0934 6.73187 12.4825C6.66582 12.5163 6.62325 12.6871 6.4706 12.5994C6.48088 12.584 6.49115 12.5686 6.50142 12.5533C6.908 12.087 7.31311 11.6207 7.72263 11.1575C7.76519 11.1082 7.79602 10.9913 7.91491 11.1128C8.33176 11.5407 8.75448 11.9654 9.19629 12.364C9.88468 12.9841 10.598 13.5736 11.285 14.1953C12.2537 15.0694 13.2914 15.8388 14.3864 16.5267C14.5787 16.6483 14.7372 16.6606 14.9515 16.5698C15.2465 16.4452 15.223 15.9065 15.6619 15.9973C15.6619 15.9973 15.6707 15.9773 15.6692 15.9681C15.6516 15.8019 15.9951 15.7619 15.8072 15.5372C15.8248 15.5218 15.8483 15.5095 15.8571 15.4895C15.9511 15.2864 16.362 15.3125 16.2153 14.9247C16.183 14.8401 16.2872 14.8832 16.3386 14.8893C16.3723 14.9186 16.4105 14.9432 16.453 14.9647C16.4707 14.9986 16.4883 15.034 16.5103 15.0663C16.5118 15.0694 16.547 15.0463 16.5661 15.0355C16.5396 15.0001 16.5132 14.9647 16.4868 14.9293C16.4707 14.9109 16.4545 14.8924 16.4384 14.8739C16.5837 14.8201 16.6453 14.6308 16.6028 14.5954C16.2857 14.3322 16.7642 13.9044 16.4061 13.6782C16.4134 13.6659 16.4193 13.6505 16.4296 13.6443C16.5837 13.5505 16.6717 13.4366 16.5426 13.2581C16.5793 13.2719 16.6145 13.2889 16.6512 13.2996C16.7936 13.3412 16.9433 13.4058 16.9947 13.1704C17.027 13.0226 16.9051 12.9734 16.8347 12.9118L16.8435 12.9057ZM10.7507 7.45023C10.7624 7.43792 10.7756 7.42407 10.7874 7.41176C10.7991 7.39945 10.8123 7.3856 10.8241 7.37329C10.8387 7.36251 10.8534 7.35174 10.8681 7.34097C10.8622 7.35944 10.8564 7.37944 10.8505 7.39791C10.8358 7.41022 10.8226 7.42407 10.8079 7.43638C10.7976 7.45023 10.7859 7.46254 10.7756 7.47639C10.7521 7.51179 10.7404 7.57027 10.6773 7.53641C10.7022 7.50871 10.7257 7.47947 10.7507 7.45177V7.45023ZM14.7489 2.09791C14.7489 2.09791 14.7489 2.11022 14.7504 2.11638C14.7504 2.11945 14.7504 2.12407 14.7504 2.12715C14.7504 2.11791 14.7489 2.10714 14.7475 2.09791H14.7489ZM14.6139 0.231212C14.6139 0.252757 14.6139 0.274302 14.6139 0.295846C14.6007 0.294307 14.5875 0.292768 14.5743 0.29123C14.5875 0.271224 14.5992 0.251218 14.6124 0.231212H14.6139ZM14.5743 0.292768C14.5816 0.302002 14.589 0.311235 14.5963 0.322008C14.5875 0.326624 14.5801 0.33278 14.5713 0.337397C14.5713 0.322008 14.5728 0.308158 14.5743 0.292768ZM11.9998 5.16649C12.013 5.15418 12.0247 5.14187 12.0379 5.12956C12.0497 5.11571 12.0614 5.10186 12.0732 5.08955C12.0849 5.07724 12.0981 5.06338 12.1099 5.05107C12.1216 5.03876 12.1348 5.02491 12.1465 5.0126C12.1598 5.00029 12.173 4.98798 12.1862 4.97567L12.2214 4.93566C12.2361 4.92334 12.2493 4.91103 12.264 4.89718C12.261 4.92027 12.2566 4.94181 12.2537 4.96489C12.242 4.97874 12.2287 4.99106 12.217 5.00491C12.2067 5.01722 12.1965 5.02953 12.1862 5.04338C12.1744 5.05569 12.1627 5.06954 12.1524 5.08185C12.1377 5.09416 12.1245 5.10801 12.1099 5.12032C12.0981 5.13264 12.0849 5.14649 12.0732 5.1588C12.0614 5.17265 12.0497 5.18496 12.0379 5.19881C12.0159 5.2065 11.9939 5.2142 11.9719 5.22189L12.0027 5.16957L11.9998 5.16649ZM11.5286 5.6851C11.6592 5.54506 11.7899 5.40656 11.922 5.26806C11.9278 5.27729 11.9411 5.29422 11.9396 5.29576C11.8031 5.4358 11.6666 5.57276 11.5301 5.71127C11.5286 5.70049 11.5242 5.68818 11.5301 5.68357L11.5286 5.6851ZM11.489 5.75743C11.486 5.77436 11.4816 5.79283 11.4787 5.80976C11.4508 5.78513 11.4376 5.76359 11.489 5.75743ZM2.39895 16.1543C2.40482 16.1697 2.41216 16.1851 2.41803 16.2005C2.40482 16.1928 2.39161 16.1835 2.3784 16.1758C2.38427 16.1681 2.39161 16.162 2.39748 16.1543H2.39895ZM2.2463 16.3313C2.2463 16.3313 2.26098 16.3174 2.26832 16.3113C2.26685 16.3205 2.26391 16.3282 2.26245 16.3374C2.25804 16.3359 2.25217 16.3344 2.24777 16.3313H2.2463ZM2.27566 16.3005C2.28153 16.282 2.2874 16.262 2.29327 16.2436C2.30354 16.2682 2.32263 16.2974 2.27419 16.3005H2.27566ZM2.36079 16.2282C2.36813 16.2112 2.37547 16.1943 2.3828 16.1774C2.39455 16.1851 2.40776 16.1928 2.4195 16.2005V16.2035C2.40189 16.2112 2.38134 16.2205 2.36079 16.2282ZM2.43565 16.0404C2.44739 16.0404 2.4606 16.0404 2.47234 16.0389C2.4694 16.0312 2.46794 16.022 2.465 16.0143C2.47087 16.025 2.47821 16.0373 2.48408 16.0481C2.46794 16.045 2.45179 16.0435 2.43565 16.0404ZM2.465 16.0096C2.55454 15.9112 2.6426 15.8127 2.71599 15.7326C2.66168 15.8296 2.61618 15.9712 2.465 16.0096ZM3.46897 14.8585C3.47337 14.8493 3.47631 14.8385 3.48071 14.8293C3.48365 14.837 3.48658 14.8462 3.48952 14.8539C3.48218 14.8539 3.47631 14.857 3.47044 14.857L3.46897 14.8585ZM3.61722 14.9663V14.9601L3.62015 14.9678C3.62015 14.9678 3.61868 14.9678 3.61722 14.9663ZM3.55997 14.7354C3.61868 14.6677 3.67886 14.6031 3.73904 14.5369C3.71556 14.6385 3.67152 14.7216 3.55997 14.7354ZM3.73464 14.777C3.74932 14.777 3.764 14.777 3.77867 14.777C3.764 14.777 3.74932 14.777 3.73317 14.777H3.73464ZM3.74932 14.7431C3.74932 14.7431 3.764 14.7323 3.76987 14.7277C3.7728 14.7431 3.77574 14.7585 3.77721 14.7739C3.76693 14.7631 3.75812 14.7539 3.74785 14.7431H3.74932ZM3.82711 14.66C3.82711 14.66 3.83151 14.6523 3.83445 14.6492C3.83885 14.6492 3.84326 14.6492 3.84619 14.6508C3.84913 14.6539 3.84913 14.6585 3.8506 14.6631C3.84326 14.6631 3.83592 14.6616 3.82858 14.66H3.82711ZM5.28169 12.9918C4.903 13.435 4.5067 13.8598 4.11627 14.2922C4.10306 14.3045 4.09131 14.3168 4.0781 14.3292C4.10452 14.4184 4.02086 14.4338 3.9827 14.4938C3.99297 14.4292 4.00031 14.3784 4.00765 14.3276C3.89463 14.3492 3.87995 14.52 3.75225 14.5184C4.22635 13.9767 4.70045 13.435 5.17454 12.8934C5.17895 12.8887 5.18335 12.8857 5.18922 12.881C5.31692 12.7702 5.3771 12.584 5.54883 12.5194C5.46223 12.6779 5.39618 12.8564 5.28316 12.9888L5.28169 12.9918ZM5.61194 12.4594C5.61194 12.4594 5.61488 12.4594 5.61635 12.4609L5.61341 12.4578L5.61194 12.4594ZM5.61635 12.4609C5.56938 12.3501 5.6413 12.3717 5.70001 12.3778C5.67212 12.4055 5.64424 12.4332 5.61635 12.4609ZM6.19466 11.6053C6.19466 11.6053 6.19906 11.593 6.20053 11.5884C6.21374 11.5945 6.22842 11.6022 6.24163 11.6084C6.22548 11.6084 6.2108 11.6068 6.19466 11.6053ZM6.24309 11.6068C6.24163 11.5884 6.23869 11.5699 6.23722 11.5514C6.24896 11.5576 6.26071 11.5653 6.27245 11.5714C6.26218 11.5822 6.25337 11.5945 6.24309 11.6053V11.6068ZM6.384 11.5437C6.35905 11.5668 6.31208 11.5637 6.27392 11.5714C6.34144 11.3467 6.53078 11.2221 6.67756 11.0697C6.77297 10.9713 6.86103 10.8774 6.92268 10.7543C6.92268 10.7543 6.92268 10.7527 6.92415 10.7512C6.81406 11.0682 6.61885 11.3206 6.384 11.5422V11.5437ZM6.92415 11.3467L6.95497 11.3237C6.95497 11.336 6.95204 11.3483 6.95057 11.3606C6.94176 11.356 6.93296 11.3514 6.92415 11.3483V11.3467ZM6.96231 11.316C6.96965 11.3037 6.97699 11.2913 6.98433 11.2806C6.98873 11.2913 6.99313 11.3021 6.99754 11.3114C6.9858 11.3129 6.97405 11.3144 6.96084 11.316H6.96231ZM7.47751 10.802C7.31311 10.9543 7.22505 11.1929 6.9946 11.2667C7.11936 11.0851 7.24266 10.902 7.37182 10.7235C7.39824 10.6866 7.4276 10.6096 7.49659 10.6789C7.55236 10.7327 7.5098 10.7727 7.47604 10.8035L7.47751 10.802ZM10.6318 7.62875C10.6171 7.64106 10.6039 7.65491 10.5892 7.66722C10.5731 7.67337 10.5555 7.68107 10.5393 7.68722C10.5481 7.67184 10.5569 7.65645 10.5657 7.6426C10.5789 7.63028 10.5907 7.61797 10.6039 7.60412C10.6186 7.59335 10.6333 7.58104 10.6494 7.57027C10.6435 7.59027 10.6391 7.60874 10.6333 7.62875H10.6318ZM11.3378 8.57517C11.3275 8.56902 11.3128 8.56748 11.3114 8.55978C11.3084 8.55055 11.3128 8.5367 11.3158 8.52593C11.3261 8.53209 11.3393 8.5367 11.3451 8.5444C11.3481 8.55055 11.3422 8.56286 11.3393 8.57517H11.3378ZM11.42 8.69829C11.3994 8.66289 11.3833 8.63981 11.3745 8.61365C11.3716 8.60595 11.3906 8.58902 11.398 8.57671C11.4171 8.59826 11.4376 8.61826 11.4523 8.64135C11.4552 8.6475 11.4376 8.66751 11.42 8.69675V8.69829ZM13.1109 10.0017C13.0713 9.98789 13.0316 9.97558 12.992 9.96327C13.0214 9.94942 13.0507 9.93711 13.0801 9.92326C13.0903 9.94942 13.1006 9.97558 13.1124 10.0017H13.1109ZM11.602 8.76908C11.6108 8.79216 11.6211 8.81524 11.6299 8.83833C11.6108 8.81986 11.5917 8.80139 11.5712 8.78293C11.5814 8.77831 11.5903 8.77369 11.6005 8.76908H11.602ZM11.7209 8.92297C11.7209 8.92297 11.7106 8.91681 11.7062 8.91527C11.7106 8.90912 11.7165 8.90296 11.7209 8.89681C11.6842 8.93528 11.6607 8.9045 11.6416 8.85218C11.6739 8.85833 11.7062 8.86449 11.7385 8.87064C11.7385 8.87064 11.7385 8.87526 11.737 8.8768C11.7385 8.87526 11.74 8.87218 11.7414 8.87064C11.74 8.87372 11.7385 8.87526 11.737 8.8768C11.7326 8.89219 11.7268 8.90758 11.7224 8.92297H11.7209ZM12.1876 9.19074C12.0673 9.16766 12.0071 9.06301 11.9337 8.97529L11.9293 8.96914C11.8236 8.95529 11.7825 8.86141 11.7253 8.79062C11.7165 8.77215 11.7062 8.75369 11.6974 8.73522C11.718 8.72753 11.7385 8.71983 11.7591 8.71214C11.8559 8.7383 11.9278 8.79678 11.9645 8.89834C11.9748 8.90604 11.9836 8.91374 11.9939 8.92143C12.104 8.9599 12.173 9.03993 12.2155 9.14919C12.2185 9.15842 12.195 9.19228 12.1891 9.19074H12.1876ZM12.3535 9.36771L12.3286 9.32155C12.3153 9.3077 12.3021 9.29231 12.2889 9.27846C12.3109 9.27538 12.333 9.2723 12.3564 9.26768C12.3711 9.28153 12.3873 9.29692 12.4019 9.31077C12.4137 9.33232 12.4254 9.35232 12.4372 9.37387C12.4093 9.37233 12.3814 9.36925 12.355 9.36771H12.3535ZM12.6221 9.57393C12.6133 9.57085 12.606 9.56623 12.5972 9.56161C12.6016 9.557 12.606 9.5493 12.6089 9.5493C12.6177 9.55084 12.625 9.557 12.6339 9.56161C12.6295 9.56623 12.625 9.57085 12.6221 9.57393ZM12.6882 9.577C12.694 9.58932 12.6984 9.60163 12.7043 9.61394C12.6926 9.60932 12.6808 9.6047 12.6676 9.59855C12.675 9.59085 12.6808 9.58316 12.6882 9.577ZM12.7366 9.6678C12.7293 9.65395 12.7219 9.64164 12.7161 9.62779C12.7278 9.63548 12.7395 9.64472 12.7513 9.65241C12.8716 9.72012 13.0155 9.76937 12.9861 9.96019C12.9025 9.86324 12.8203 9.76475 12.7381 9.6678H12.7366ZM13.1168 10.0064C13.1696 10.0002 13.2019 10.0156 13.1901 10.0802C13.4588 10.1849 13.6378 10.4172 13.8521 10.5973C13.8639 10.6065 13.8639 10.6296 13.8697 10.645C13.8507 10.6404 13.8257 10.6404 13.8125 10.6281C13.6026 10.4465 13.3956 10.2634 13.1872 10.0818C13.1461 10.0725 13.0991 10.071 13.1168 10.0048V10.0064ZM16.5176 13.2258C16.5176 13.2258 16.5308 13.2381 16.5367 13.2442C16.5279 13.2442 16.5191 13.2442 16.5103 13.2442C16.5132 13.2381 16.5147 13.2335 16.5176 13.2273V13.2258Z" fill="#A63D11"/>
</svg>
