<svg width="1920" height="703" viewBox="0 0 1920 703" fill="none" xmlns="http://www.w3.org/2000/svg">
<g clip-path="url(#clip0_2563_1101)" filter="url(#filter0_b_2563_1101)">
<path d="M2779.15 365.326L2741.29 324.57C2703.42 283.815 2627.69 202.304 2550.52 135.878C2476.37 69.1305 2403.79 17.1467 2348.53 127.562C2290.26 238.299 2252.33 511.114 2184.47 503.421C2116.61 495.728 2018.83 207.527 1941.66 141.101C1867.51 74.3534 1816.98 229.06 1753.84 265.657C1687.7 302.576 1611.97 221.065 1544.11 213.372C1476.26 205.679 1416.27 271.804 1356.43 367.777C1299.6 463.429 1245.91 588.608 1181.21 610.442C1113.49 632.598 1037.76 551.087 969.901 543.394C902.044 535.7 842.062 601.825 768.043 564.926C697.037 527.706 615.007 387.141 544.001 349.921C469.982 313.022 410 379.147 346.868 415.744C283.736 452.342 217.455 459.412 146.585 452.041C78.7289 444.348 9.29761 421.891 -52.2593 473.252C-116.829 524.935 -170.511 650.114 -236.793 657.184C-303.075 664.255 -381.955 553.217 -446.525 604.899C-508.082 656.261 -552.315 870.021 -620.171 862.328C-691.041 854.956 -782.52 625.81 -828.26 511.236L-874 396.663" stroke="#DBCBB4" stroke-width="21.1421"/>
<path d="M2779.15 365.326L2741.29 324.57C2703.42 283.815 2627.69 202.304 2550.52 135.878C2476.37 69.1305 2403.79 17.1467 2348.53 127.562C2290.26 238.299 2252.33 511.114 2184.47 503.421C2116.61 495.728 2018.83 207.527 1941.66 141.101C1867.51 74.3534 1816.98 229.06 1753.84 265.657C1687.7 302.576 1611.97 221.065 1544.11 213.372C1476.26 205.679 1416.27 271.804 1356.43 367.777C1299.6 463.429 1245.91 588.608 1181.21 610.442C1113.49 632.598 1037.76 551.087 969.901 543.394C902.044 535.7 842.062 601.825 768.043 564.926C697.037 527.706 615.007 387.141 544.001 349.921C469.982 313.022 410 379.147 346.868 415.744C283.736 452.342 217.455 459.412 146.585 452.041C78.7289 444.348 9.29761 421.891 -52.2593 473.252C-116.829 524.935 -170.511 650.114 -236.793 657.184C-303.075 664.255 -381.955 553.217 -446.525 604.899C-508.082 656.261 -552.315 870.021 -620.171 862.328C-691.041 854.956 -782.52 625.81 -828.26 511.236L-874 396.663" stroke="#ECDECA" stroke-width="3.52368" stroke-dasharray="14.09 14.09"/>
</g>
<defs>
<filter id="filter0_b_2563_1101" x="-120" y="-120" width="2160" height="943" filterUnits="userSpaceOnUse" color-interpolation-filters="sRGB">
<feFlood flood-opacity="0" result="BackgroundImageFix"/>
<feGaussianBlur in="BackgroundImageFix" stdDeviation="60"/>
<feComposite in2="SourceAlpha" operator="in" result="effect1_backgroundBlur_2563_1101"/>
<feBlend mode="normal" in="SourceGraphic" in2="effect1_backgroundBlur_2563_1101" result="shape"/>
</filter>
<clipPath id="clip0_2563_1101">
<rect width="1920" height="703" fill="white"/>
</clipPath>
</defs>
</svg>
