<svg width="48" height="48" viewBox="0 0 48 48" fill="none" xmlns="http://www.w3.org/2000/svg">
<path d="M26.4026 48H13.3062C7.07197 48 2 42.9532 2 36.75V11.25C2 5.04675 7.07197 0 13.3062 0H26.4026C30.4262 0 34.1784 2.15484 36.1952 5.62359C36.7162 6.51994 36.4085 7.66687 35.5076 8.1855C34.6066 8.70394 33.454 8.39775 32.9329 7.50141C31.5876 5.18747 29.0853 3.75 26.4026 3.75H13.3062C9.15005 3.75 5.76874 7.1145 5.76874 11.25V36.75C5.76874 40.8855 9.15005 44.25 13.3062 44.25H26.4026C30.5587 44.25 33.94 40.8855 33.94 36.75C33.94 35.7144 34.7837 34.875 35.8244 34.875C36.8651 34.875 37.7088 35.7144 37.7088 36.75C37.7088 42.9532 32.6368 48 26.4026 48ZM19.9957 35.3438C18.6948 35.3438 17.6403 36.3931 17.6403 37.6875C17.7647 40.7972 22.2278 40.7948 22.3512 37.6875C22.3512 36.3931 21.2966 35.3438 19.9957 35.3438ZM39.8544 13.7127C39.8543 13.7127 39.8543 13.7127 39.8544 13.7127C37.9356 11.195 33.9012 11.1953 31.9828 13.7127C29.3982 16.9772 25.8373 26.0254 25.8373 29.3282C25.8373 30.755 26.3988 31.6016 26.8699 32.0606C27.2999 32.5028 28.2235 33.042 29.457 32.9989C31.5892 32.9544 34.3575 31.4363 35.9189 30.4633C37.5198 31.4585 40.3635 33.0183 42.5331 32.9992C43.7982 32.9863 44.5822 32.4551 45.017 32.0118C45.4655 31.5547 46 30.718 46 29.3281C46 26.0254 42.439 16.9772 39.8544 13.7127ZM37.7088 27.1506V24.4689C37.6093 21.9812 34.0387 21.9831 33.94 24.4689V27.2699C32.5248 28.1482 30.6886 29.0872 29.6079 29.2311C29.6943 26.8418 32.8263 18.7072 34.9433 16.0333C35.4574 15.4007 36.3791 15.3998 36.8941 16.0333H36.894C39.0112 18.7073 42.1435 26.8428 42.2295 29.2314C41.1158 29.0831 39.1381 28.053 37.7088 27.1506Z" fill="#1E3D1E"/>
</svg>
