<svg width="48" height="48" viewBox="0 0 48 48" fill="none" xmlns="http://www.w3.org/2000/svg">
<path d="M41.5723 3.35817L35.5394 0.905583C33.3973 0.0347588 31.0623 -0.20872 28.7866 0.201201C28.7701 0.2042 28.7536 0.207387 28.7372 0.210854L16.1228 2.83476L10.7263 0.592566C10.7219 0.590692 10.7175 0.588911 10.713 0.58713C5.70429 -1.53042 -0.0745522 2.35821 0.000727807 7.79261V35.1C0.000727807 39.3137 2.52368 43.062 6.42831 44.6494L12.4611 47.1019C13.927 47.6979 15.4831 48 17.0489 48C17.7712 48 18.4955 47.9357 19.2139 47.8063C19.2308 47.8032 19.2476 47.8 19.2643 47.7964L31.8783 45.165L37.2743 47.407C37.2787 47.4088 37.2832 47.4106 37.2877 47.4124C39.6906 48.3893 42.4104 48.1082 44.5627 46.6606C46.715 45.2128 48 42.8003 48 40.2069V12.9076C47.9999 8.69389 45.477 4.94556 41.5723 3.35817ZM44.25 40.207C44.25 41.5706 43.601 42.7892 42.4692 43.5505C41.3394 44.3105 39.9683 44.4532 38.7064 43.9426L32.7823 41.4812C32.4336 41.3363 32.0492 41.3001 31.6797 41.3772L18.5249 44.1214C16.9568 44.3993 15.3492 44.2293 13.8739 43.6295L7.841 41.177C5.35629 40.1668 3.75076 37.7815 3.75076 35.1001V7.79261C3.75076 6.42902 4.39978 5.21041 5.53151 4.44914C6.66558 3.68544 8.04162 3.54908 9.29429 4.05703L15.2184 6.51843C15.5667 6.66313 15.9507 6.69958 16.32 6.62264L29.4755 3.88618C31.0435 3.6084 32.6513 3.77822 34.1269 4.3781L40.1598 6.8306C42.6445 7.84078 44.2501 10.2261 44.2501 12.9076V40.207H44.25ZM18.6567 21.4694C18.6567 22.7633 17.6073 23.8123 16.313 23.8123C13.2041 23.6889 13.2049 19.2494 16.313 19.1264C17.6073 19.1264 18.6567 20.1754 18.6567 21.4694ZM34.0314 26.7176C34.0314 28.0115 32.9821 29.0605 31.6877 29.0605C28.5788 28.9371 28.5796 24.4976 31.6877 24.3746C32.9821 24.3746 34.0314 25.4236 34.0314 26.7176ZM16.313 15.8463C15.2774 15.8463 14.438 15.0072 14.438 13.972V12.0976C14.537 9.61073 18.0898 9.61261 18.1879 12.0976V13.972C18.1879 15.0072 17.3485 15.8463 16.313 15.8463ZM18.1879 38.6197V28.9668C18.0889 26.4799 14.5361 26.4818 14.438 28.9668V38.6197C14.438 39.6549 15.2774 40.4941 16.313 40.4941C17.3485 40.4941 18.1879 39.6549 18.1879 38.6197ZM33.5627 35.9956V34.215C33.4637 31.7281 29.9109 31.73 29.8127 34.215V35.9956C29.8127 37.0308 30.6521 37.87 31.6877 37.87C32.7232 37.87 33.5627 37.0308 33.5627 35.9956ZM33.5627 19.2202V9.47353C33.4637 6.98664 29.9109 6.98851 29.8127 9.47353V19.2202C29.8127 20.2554 30.6521 21.0945 31.6877 21.0945C32.7232 21.0945 33.5627 20.2554 33.5627 19.2202Z" fill="#1E3D1E"/>
</svg>
