<svg width="70" height="70" viewBox="0 0 70 70" fill="none" xmlns="http://www.w3.org/2000/svg">
<path d="M35.002 68.068C16.7663 68.068 1.93083 53.2325 1.93083 34.9968C1.93083 16.7611 16.7663 1.92969 35.002 1.92969C53.2377 1.92969 68.0732 16.7652 68.0732 35.0009C68.0732 53.2366 53.2377 68.0721 35.002 68.0721V68.068ZM35.002 2.73926C17.2116 2.73926 2.74041 17.2104 2.74041 34.9968C2.74041 52.7832 17.2116 67.2584 35.002 67.2584C52.7925 67.2584 67.2636 52.7873 67.2636 34.9968C67.2636 17.2064 52.7884 2.73926 35.002 2.73926Z" fill="#ECDECA"/>
<path d="M34.998 51.2293C26.0481 51.2293 18.77 43.9472 18.77 35.0014C18.77 26.0556 26.0522 18.7734 34.998 18.7734C43.9438 18.7734 51.23 26.0556 51.23 35.0014C51.23 43.9472 43.9478 51.2293 34.998 51.2293ZM34.998 19.1742C26.2707 19.1742 19.1748 26.2742 19.1748 34.9973C19.1748 43.7205 26.2748 50.8205 34.998 50.8205C43.7212 50.8205 50.8252 43.7205 50.8252 34.9973C50.8252 26.2742 43.7252 19.1742 34.998 19.1742Z" fill="#ECDECA"/>
<path d="M34.998 65.8335C17.9969 65.8335 4.16527 52.0019 4.16527 35.0008C4.16527 17.9997 17.9969 4.16406 34.998 4.16406C51.9991 4.16406 65.8307 17.9957 65.8307 34.9968C65.8307 51.9979 51.9991 65.8295 34.998 65.8295V65.8335ZM34.998 4.56885C18.2195 4.56885 4.57006 18.2183 4.57006 34.9968C4.57006 51.7752 18.2195 65.4247 34.998 65.4247C51.7764 65.4247 65.4259 51.7752 65.4259 34.9968C65.4259 18.2183 51.7805 4.56885 34.998 4.56885Z" fill="#ECDECA"/>
<path d="M24.847 7.9636L24.0928 8.25781L25.5712 12.0478L26.3254 11.7536L24.847 7.9636Z" fill="#ECDECA"/>
<path d="M44.429 58.1627L43.6749 58.457L45.1525 62.243L45.9066 61.9486L44.429 58.1627Z" fill="#ECDECA"/>
<path d="M46.2549 8.39883L44.6223 12.125L45.3638 12.4499L46.9964 8.72372L46.2549 8.39883Z" fill="#ECDECA"/>
<path d="M24.638 57.7541L23.0071 61.4766L23.7486 61.8015L25.3795 58.079L24.638 57.7541Z" fill="#ECDECA"/>
<path d="M61.4491 23.2607L57.7133 24.8711L58.0338 25.6145L61.7696 24.0041L61.4491 23.2607Z" fill="#ECDECA"/>
<path d="M11.9683 44.6005L8.23253 46.2109L8.55301 46.9544L12.2888 45.3439L11.9683 44.6005Z" fill="#ECDECA"/>
<path d="M58.3352 43.8402L58.0392 44.5938L61.8217 46.0799L62.1178 45.3264L58.3352 43.8402Z" fill="#ECDECA"/>
<path d="M8.18056 24.1332L7.88451 24.8867L11.6709 26.3744L11.9669 25.6209L8.18056 24.1332Z" fill="#ECDECA"/>
<path fill-rule="evenodd" clip-rule="evenodd" d="M70 34.998L44.9881 39.1309L50.979 50.979L39.1309 44.9881L34.998 70L30.8691 44.9881L19.2274 50.979L25.0119 39.1309L0 34.998L25.0119 30.8691L18.0495 17.9443L30.8691 25.0119L34.998 0L39.1309 25.0119L52.0557 17.9443L44.9881 30.8691L70 34.998ZM34.998 34.9985V34.9987L34.9981 34.9985L34.999 34.9981H35.2044L35.0984 34.9556L35.1437 34.9362L35.2044 34.9976L35.1729 34.9238L43.8183 31.2299L50.979 19.0215L35.1429 34.8536L35.0982 34.749L38.5682 26.1014L34.998 3.04472V34.5146L31.4358 26.1813L19.9925 19.6238L34.998 34.789V34.9153L26.3072 31.4319L3.25044 34.9981H34.998V34.9985ZM35.0579 34.8495L35.0268 34.9269L35.0574 34.9391L35.1022 34.8943L35.0579 34.8495ZM34.9982 34.9981H34.9984L34.9981 34.9984L34.9982 34.9981ZM66.956 34.9983H35.2044H35.002L35.0333 35.0715L26.3881 38.7709L20.4054 49.8581L35.0628 35.1405L35.1064 35.2426L31.6342 43.8996L35.2044 66.9563V35.472L38.7706 43.8187L49.9387 49.8581L35.2044 35.1997V35.0795L43.8993 38.5686L66.956 34.9983ZM35.002 34.9983L35.1065 35.0402L35.0629 35.0589L35.002 34.9983ZM35.1037 35.0995L35.1467 35.1422L35.1764 35.0683L35.1466 35.0563L35.1037 35.0995Z" fill="#ECDECA"/>
</svg>
