<svg width="48" height="48" viewBox="0 0 48 48" fill="none" xmlns="http://www.w3.org/2000/svg">
<path d="M47.7338 27.5318C46.9789 30.2225 45.7149 32.8094 43.9768 35.2209C43.3713 36.061 42.1999 36.2508 41.3602 35.6452C40.5204 35.0395 40.3307 33.8676 40.9361 33.0275C42.4162 30.9741 43.4889 28.7842 44.1245 26.5185C44.3759 25.6225 44.1985 24.6843 43.6379 23.9444C43.0771 23.2043 42.2203 22.7798 41.2872 22.7798H6.70017C5.7671 22.7798 4.91031 23.2043 4.3495 23.9444C3.78896 24.6843 3.61155 25.6224 3.8629 26.5185C4.93721 30.3479 7.13578 33.8268 10.1272 36.4758L12.5973 32.7974C14.0661 30.7873 17.0133 32.7702 15.709 34.8886L7.46173 47.1705C6.88095 48.0367 5.7088 48.2544 4.86064 47.6815C4.00133 47.104 3.77275 45.9391 4.34996 45.0794L8.02124 39.6122C4.30076 36.4495 1.56687 32.2134 0.25358 27.5318C-0.31764 25.4958 0.0864782 23.3625 1.362 21.6791C2.6378 19.9953 4.58351 19.0296 6.70017 19.0296H41.2872C45.6351 18.9453 48.9885 23.3677 47.7338 27.5318ZM35.3901 32.7974C33.9211 30.7873 30.9741 32.7702 32.2784 34.8886L34.8384 38.7009C29.7239 41.8309 23.2957 42.5795 17.5406 40.684C16.5553 40.3658 15.499 40.9068 15.1809 41.8924C14.8629 42.8778 15.4037 43.9347 16.3889 44.2529C23.2224 46.5021 30.8786 45.5844 36.9309 41.8171L40.5257 47.1705C41.1065 48.0367 42.2786 48.2543 43.1268 47.6815C43.9861 47.104 44.2147 45.9391 43.6374 45.0794L35.3901 32.7974ZM15.5589 15.9356C14.5237 15.9356 13.6845 15.0961 13.6845 14.0605C13.6845 11.7466 14.4371 9.007 15.8036 6.34622C17.1033 3.81595 18.7799 1.72098 20.4036 0.598823C21.4017 -0.0908421 22.7001 -0.192473 23.7924 0.33387C24.8935 0.864526 25.6005 1.90831 25.6839 3.1261C25.7359 3.88476 26.1072 4.95348 26.5736 6.00945C27.0244 5.57499 27.5958 5.26831 28.2394 5.13321C29.4282 4.88335 30.6279 5.27009 31.4478 6.16724C32.9183 7.77618 34.3028 11.9252 34.3028 13.9669C34.3028 15.0025 33.4636 15.842 32.4284 15.842C31.3932 15.842 30.554 15.0025 30.554 13.9669C30.554 12.7973 29.6685 10.2862 28.9895 9.13676C28.829 9.43265 28.5618 9.91755 28.1048 10.7469C27.7829 11.3309 27.1753 11.6999 26.509 11.7162C25.843 11.7319 25.2178 11.3935 24.8679 10.8258C24.6114 10.4096 22.5102 6.93632 22.0286 4.08268C19.8466 6.00289 17.4334 10.6383 17.4334 14.0605C17.4333 15.0961 16.5941 15.9356 15.5589 15.9356Z" fill="#1E3D1E"/>
</svg>
