<svg width="48" height="48" viewBox="0 0 48 48" fill="none" xmlns="http://www.w3.org/2000/svg">
<path d="M14.2513 47.9996H4.76549C0.642386 48.0507 -1.56022 42.9725 1.28187 39.9965L6.17927 33.7822C4.76709 33.4253 3.6026 32.4411 3.00418 31.0395C2.25613 29.2874 2.59036 27.3476 3.87373 25.9519L9.68867 18.5685C6.06986 17.9524 4.50955 13.3383 7.07356 10.6555L14.9294 2.0636C14.9324 2.06032 14.9354 2.05704 14.9386 2.05375C17.4047 -0.684772 21.9531 -0.684397 24.4188 2.05375C24.4212 2.05629 24.4235 2.05872 24.4258 2.06126L29.7891 7.90705C30.4894 8.67022 30.4385 9.85671 29.6755 10.557C28.9124 11.2576 27.7264 11.2065 27.0262 10.4434L21.667 4.6021C20.6491 3.45518 18.7098 3.45472 17.6913 4.60107L9.83755 13.1906C9.83455 13.1939 9.83155 13.1972 9.82846 13.2005C9.42308 13.6376 9.56398 14.1082 9.64339 14.2902C9.7228 14.4722 9.9718 14.8957 10.5679 14.8957H13.4911C14.2093 14.8957 14.8644 15.3061 15.1779 15.9525C15.4915 16.5988 15.4084 17.3676 14.9639 17.9319C14.9639 17.9319 6.69321 28.4286 6.65168 28.4722C6.0318 29.111 6.48865 30.1846 7.38032 30.1787H9.92849C10.6468 30.1787 11.302 30.5893 11.6156 31.2357C11.9291 31.8823 11.8457 32.6511 11.401 33.2154C11.401 33.2154 4.08879 42.4881 4.04304 42.5351C3.62144 42.9678 3.75775 43.446 3.83604 43.6314C3.91423 43.8169 4.16136 44.2483 4.7654 44.2483H14.2512C16.7391 44.3475 16.7372 47.9014 14.2513 47.9996ZM28.5953 46.124C28.5953 45.0882 27.7558 44.2485 26.7203 44.2485H23.2934C23.2504 44.2485 23.206 44.2485 23.172 44.1679C23.1381 44.0874 23.169 44.0557 23.199 44.0249C23.2447 43.978 28.4054 37.4389 28.4054 37.4389C29.374 36.2256 28.4847 34.3924 26.9332 34.4018H25.16C25.085 34.4018 25.0542 34.3859 25.033 34.3361C25.0188 34.3028 25.015 34.2872 25.0649 34.235C25.106 34.192 30.9107 26.8427 30.9107 26.8427C31.356 26.2785 31.4398 25.5094 31.1264 24.8625C30.8131 24.2157 30.1577 23.8049 29.4391 23.8049H27.4184C27.3741 23.8049 27.3283 23.8049 27.2957 23.7302C27.2659 23.6618 27.2906 23.6351 27.3219 23.6013C27.3282 23.5944 32.758 17.5609 32.758 17.5609C33.2528 17.0109 34.1878 17.0122 34.6809 17.5639L40.17 23.5889C40.1737 23.593 40.1775 23.5972 40.1813 23.6013C40.2125 23.6351 40.2373 23.6617 40.2074 23.7302C40.1748 23.8049 40.129 23.8049 40.0847 23.8049H37.9703C37.252 23.8049 36.5967 24.2155 36.2832 24.862C35.9697 25.5085 36.0531 26.2774 36.4978 26.8416C36.4978 26.8416 42.2946 34.1916 42.336 34.235C42.3859 34.2872 42.3821 34.3028 42.3679 34.3361C42.3466 34.3859 42.3158 34.4018 42.241 34.4018H40.503C38.0152 34.5008 38.0171 38.0548 40.503 38.1529H42.241C45.5692 38.1745 47.3925 34.1697 45.1157 31.7167L41.6011 27.2574C42.5009 26.8833 43.2326 26.1744 43.6445 25.2302C44.2674 23.8023 43.996 22.2039 42.9365 21.0566C42.9365 21.0566 37.4383 15.0216 37.4346 15.0175C35.5009 12.8703 31.9348 12.8706 30.0013 15.0175C29.995 15.0244 24.5622 21.0612 24.5622 21.0612C22.7435 22.9508 23.4589 26.2157 25.8294 27.2266L22.2856 31.7162C21.255 32.8478 20.9852 34.4068 21.5841 35.8094C21.948 36.6618 22.5972 37.3335 23.3952 37.7354L20.435 41.4896C19.4066 42.6082 19.1234 44.2188 19.7165 45.6257C20.3246 47.0678 21.7285 47.9996 23.2932 47.9996H26.7201C27.7558 47.9996 28.5953 47.1599 28.5953 46.124ZM47.6863 45.6104C48.3039 44.1459 47.9936 42.4716 46.8961 41.3452C46.1734 40.6033 44.9861 40.5879 44.2446 41.311C43.503 42.0341 43.4878 43.2215 44.2105 43.9633C44.2315 43.9848 44.2806 44.0352 44.2311 44.1527C44.1906 44.2485 44.1476 44.2485 44.1162 44.2485H34.0329C31.5451 44.3475 31.547 47.9014 34.0329 47.9996H44.1162C45.6729 47.9996 47.0743 47.0618 47.6863 45.6104Z" fill="#1E3D1E"/>
</svg>
