<svg width="185" height="19" viewBox="0 0 185 19" fill="none" xmlns="http://www.w3.org/2000/svg">
<path d="M1.23878 18V4.3L0.738777 1.8L1.23878 0.300001H9.73878C11.6221 0.300001 13.1304 0.650001 14.2638 1.35C15.3971 2.05 15.9638 3.18333 15.9638 4.75C15.9638 5.53333 15.8304 6.24167 15.5638 6.875C15.2971 7.50833 14.9138 8 14.4138 8.35C15.5471 8.71667 16.3804 9.275 16.9138 10.025C17.4471 10.775 17.7138 11.6667 17.7138 12.7C17.7138 14.5167 17.1804 15.8583 16.1138 16.725C15.0638 17.575 13.5221 18 11.4888 18H1.23878ZM5.73878 7.175H9.68878C10.2554 7.175 10.6638 7.04167 10.9138 6.775C11.1638 6.50833 11.2888 6.15833 11.2888 5.725C11.2888 5.175 11.1054 4.8 10.7388 4.6C10.3721 4.4 9.93878 4.3 9.43878 4.3H5.73878V7.175ZM5.73878 14H10.7388C11.3388 14 11.7804 13.925 12.0638 13.775C12.3638 13.625 12.5554 13.4333 12.6388 13.2C12.7388 12.9667 12.7888 12.725 12.7888 12.475C12.7888 12.0417 12.6304 11.675 12.3138 11.375C12.0138 11.0583 11.5721 10.9 10.9888 10.9H5.73878V14ZM19.2026 18L18.7026 16.5L19.2026 14V0.300001H31.5776L32.8276 1.05L31.1776 4.55L28.9276 4.3H23.7026V7.05H30.4276V10.925H27.4776L23.7026 10.675V14H31.1776L34.1526 16.4L32.6776 18H19.2026ZM33.4146 18L34.6146 13.775V10.6L36.4646 9.85L39.7146 0.325001H46.1896L50.2146 11.525L52.1396 15.075V18H47.7146L46.4646 14H39.1896L38.1146 18H33.4146ZM40.8396 10.15H45.0896L43.1896 4.425H42.6646L40.8396 10.15ZM53.1284 18V4.325L52.6284 1.825L53.1284 0.300001H60.5784C61.7784 0.300001 62.9284 0.416668 64.0284 0.650001C65.1451 0.866667 66.1368 1.28333 67.0034 1.9C67.8868 2.51667 68.5784 3.4 69.0784 4.55C69.5951 5.7 69.8534 7.19167 69.8534 9.025C69.8534 10.8583 69.5951 12.3667 69.0784 13.55C68.5618 14.7167 67.8618 15.625 66.9784 16.275C66.0951 16.925 65.0951 17.375 63.9784 17.625C62.8784 17.875 61.7451 18 60.5784 18H53.1284ZM57.6784 14H60.5784C62.0451 14 63.1701 13.6167 63.9534 12.85C64.7368 12.0667 65.1284 10.7917 65.1284 9.025C65.1284 7.25833 64.7284 6.03333 63.9284 5.35C63.1451 4.65 62.0284 4.3 60.5784 4.3H57.6784V14ZM74.8667 18L70.3667 4.275L69.6167 1.8V0.300001H74.3667L77.8917 13.45H78.3917L81.8667 0.300001H86.5667V1.8L85.8167 4.275L81.3417 18H74.8667ZM87.811 18L87.311 16.5L87.811 14V0.300001H100.186L101.436 1.05L99.786 4.55L97.536 4.3H92.311V7.05H99.036V10.925H96.086L92.311 10.675V14H99.786L102.761 16.4L101.286 18H87.811ZM103.773 18V4.325L103.273 1.825L103.773 0.325001H107.798L112.848 7.125L114.048 9.2H114.298V0.325001H119.023V1.825L118.773 4.325V18H114.848L108.573 9.2H108.323V10.7L108.573 18H103.773ZM124.773 18V4.3L119.773 4.55V0.300001H134.398V4.55L129.273 4.3V14L129.548 16.5L129.273 18H124.773ZM142.873 18.25C140.306 18.25 138.373 17.6667 137.073 16.5C135.79 15.3167 135.148 13.425 135.148 10.825V4.325L135.173 1.8L135.148 0.300001H139.698V10.325C139.698 11.4917 139.931 12.4417 140.398 13.175C140.865 13.8917 141.69 14.25 142.873 14.25C144.056 14.25 144.89 13.9167 145.373 13.25C145.873 12.5667 146.123 11.5917 146.123 10.325V0.300001H150.598V10.825C150.598 13.375 149.965 15.25 148.698 16.45C147.448 17.65 145.506 18.25 142.873 18.25ZM152.855 18V4.325L152.355 1.8L152.855 0.300001H160.855C162.072 0.300001 163.163 0.491667 164.13 0.875C165.113 1.24167 165.888 1.875 166.455 2.775C167.038 3.65833 167.33 4.88333 167.33 6.45C167.33 7.86667 167.072 9.01667 166.555 9.9C166.038 10.7667 165.322 11.4167 164.405 11.85L164.655 12.125L167.13 15.225L168.555 16.5V18H162.93L159.43 12.675H157.355V13.975L157.605 16.475L157.355 18H152.855ZM157.355 8.75H159.805C160.672 8.75 161.363 8.59167 161.88 8.275C162.397 7.94167 162.655 7.33333 162.655 6.45C162.655 5.83333 162.53 5.375 162.28 5.075C162.03 4.75833 161.68 4.55 161.23 4.45C160.797 4.35 160.288 4.3 159.705 4.3H157.105L157.355 8.75ZM169.549 18L169.049 16.5L169.549 14V0.300001H181.924L183.174 1.05L181.524 4.55L179.274 4.3H174.049V7.05H180.774V10.925H177.824L174.049 10.675V14H181.524L184.499 16.4L183.024 18H169.549Z" fill="#A63D11"/>
</svg>
