<svg width="48" height="48" viewBox="0 0 48 48" fill="none" xmlns="http://www.w3.org/2000/svg">
<path d="M46.0702 37.2209L29.5912 21.3613C28.095 19.9214 26.1763 19.1272 24.0977 19.1249C22.0222 19.1249 19.9966 19.9148 18.4994 21.3495L1.94732 37.2117C0.062436 39.018 -0.504464 41.6438 0.467927 44.0645C1.42823 46.4551 3.71608 47.9999 6.29647 47.9999H41.7114C47.2973 48.0347 50.1602 41.0707 46.0702 37.2209ZM44.0599 42.6689C43.9105 43.0398 43.2996 44.2498 41.7114 44.2498H6.29647C4.70656 44.2498 4.09616 43.0379 3.94694 42.6664C3.79875 42.2976 3.40385 41.0094 4.54131 39.9193L21.0933 24.0572C22.7489 22.4707 25.3396 22.4736 26.9916 24.0634L43.4705 39.9231C44.6043 41.0143 44.2083 42.3006 44.0599 42.6689ZM30.6887 32.1594C31.4116 32.9007 31.3969 34.0878 30.6557 34.8108L27.9645 37.4362C27.9605 37.44 27.9565 37.444 27.9525 37.4478C26.5677 38.7749 24.4004 38.7726 23.0184 37.4425L20.4206 34.9423L14.3087 40.7358C13.5584 41.4472 12.3716 41.4172 11.6585 40.6646C10.9463 39.9129 10.9782 38.7263 11.7296 38.014L17.9621 32.1063C19.3471 30.7839 21.5109 30.7876 22.8913 32.1161L25.4872 34.6145L28.0376 32.1264C28.779 31.4033 29.9658 31.4181 30.6887 32.1594ZM24.4726 15.3749C23.4372 15.3749 22.5979 14.5355 22.5979 13.4999V5.62497C22.5979 2.52336 25.1209 7.277e-07 28.222 7.277e-07H34.2341C35.5396 -0.000843018 36.7013 0.732091 37.2641 1.91277C37.8309 3.10152 37.6663 4.47701 36.8346 5.50235C36.8084 5.5346 36.7811 5.56601 36.7529 5.59648L36.0424 6.36222L36.8381 7.19997C36.8743 7.23812 36.9089 7.27769 36.9418 7.31875C38.7149 9.48127 37.1334 12.8668 34.3272 12.8437H31.2215C28.7342 12.7447 28.7361 9.19186 31.2215 9.09371H33.4654L32.112 7.66862C31.4305 6.95116 31.4239 5.82738 32.097 5.10195L33.3512 3.74998H28.222C27.1884 3.74998 26.3474 4.5911 26.3474 5.62497V13.4999C26.3473 14.5355 25.508 15.3749 24.4726 15.3749Z" fill="#1E3D1E"/>
</svg>
