<svg width="1920" height="250" viewBox="0 0 1920 250" fill="none" xmlns="http://www.w3.org/2000/svg">
<g clip-path="url(#clip0_2533_1061)">
<mask id="path-1-inside-1_2533_1061" fill="white">
<path d="M0 -176H1920V250H0V-176Z"/>
</mask>
<path d="M1920 -176.5H1918V-175.5H1920V-176.5ZM1910 -176.5H1906V-175.5H1910V-176.5ZM1898 -176.5H1894V-175.5H1898V-176.5ZM1886 -176.5H1882V-175.5H1886V-176.5ZM1874 -176.5H1870V-175.5H1874V-176.5ZM1862 -176.5H1858V-175.5H1862V-176.5ZM1850 -176.5H1846V-175.5H1850V-176.5ZM1838 -176.5H1834V-175.5H1838V-176.5ZM1826 -176.5H1822V-175.5H1826V-176.5ZM1814 -176.5H1810V-175.5H1814V-176.5ZM1802 -176.5H1798V-175.5H1802V-176.5ZM1790 -176.5H1786V-175.5H1790V-176.5ZM1778 -176.5H1774V-175.5H1778V-176.5ZM1766 -176.5H1762V-175.5H1766V-176.5ZM1754 -176.5H1750V-175.5H1754V-176.5ZM1742 -176.5H1738V-175.5H1742V-176.5ZM1730 -176.5H1726V-175.5H1730V-176.5ZM1718 -176.5H1714V-175.5H1718V-176.5ZM1706 -176.5H1702V-175.5H1706V-176.5ZM1694 -176.5H1690V-175.5H1694V-176.5ZM1682 -176.5H1678V-175.5H1682V-176.5ZM1670 -176.5H1666V-175.5H1670V-176.5ZM1658 -176.5H1654V-175.5H1658V-176.5ZM1646 -176.5H1642V-175.5H1646V-176.5ZM1634 -176.5H1630V-175.5H1634V-176.5ZM1622 -176.5H1618V-175.5H1622V-176.5ZM1610 -176.5H1606V-175.5H1610V-176.5ZM1598 -176.5H1594V-175.5H1598V-176.5ZM1586 -176.5H1582V-175.5H1586V-176.5ZM1574 -176.5H1570V-175.5H1574V-176.5ZM1562 -176.5H1558V-175.5H1562V-176.5ZM1550 -176.5H1546V-175.5H1550V-176.5ZM1538 -176.5H1534V-175.5H1538V-176.5ZM1526 -176.5H1522V-175.5H1526V-176.5ZM1514 -176.5H1510V-175.5H1514V-176.5ZM1502 -176.5H1498V-175.5H1502V-176.5ZM1490 -176.5H1486V-175.5H1490V-176.5ZM1478 -176.5H1474V-175.5H1478V-176.5ZM1466 -176.5H1462V-175.5H1466V-176.5ZM1454 -176.5H1450V-175.5H1454V-176.5ZM1442 -176.5H1438V-175.5H1442V-176.5ZM1430 -176.5H1426V-175.5H1430V-176.5ZM1418 -176.5H1414V-175.5H1418V-176.5ZM1406 -176.5H1402V-175.5H1406V-176.5ZM1394 -176.5H1390V-175.5H1394V-176.5ZM1382 -176.5H1378V-175.5H1382V-176.5ZM1370 -176.5H1366V-175.5H1370V-176.5ZM1358 -176.5H1354V-175.5H1358V-176.5ZM1346 -176.5H1342V-175.5H1346V-176.5ZM1334 -176.5H1330V-175.5H1334V-176.5ZM1322 -176.5H1318V-175.5H1322V-176.5ZM1310 -176.5H1306V-175.5H1310V-176.5ZM1298 -176.5H1294V-175.5H1298V-176.5ZM1286 -176.5H1282V-175.5H1286V-176.5ZM1274 -176.5H1270V-175.5H1274V-176.5ZM1262 -176.5H1258V-175.5H1262V-176.5ZM1250 -176.5H1246V-175.5H1250V-176.5ZM1238 -176.5H1234V-175.5H1238V-176.5ZM1226 -176.5H1222V-175.5H1226V-176.5ZM1214 -176.5H1210V-175.5H1214V-176.5ZM1202 -176.5H1198V-175.5H1202V-176.5ZM1190 -176.5H1186V-175.5H1190V-176.5ZM1178 -176.5H1174V-175.5H1178V-176.5ZM1166 -176.5H1162V-175.5H1166V-176.5ZM1154 -176.5H1150V-175.5H1154V-176.5ZM1142 -176.5H1138V-175.5H1142V-176.5ZM1130 -176.5H1126V-175.5H1130V-176.5ZM1118 -176.5H1114V-175.5H1118V-176.5ZM1106 -176.5H1102V-175.5H1106V-176.5ZM1094 -176.5H1090V-175.5H1094V-176.5ZM1082 -176.5H1078V-175.5H1082V-176.5ZM1070 -176.5H1066V-175.5H1070V-176.5ZM1058 -176.5H1054V-175.5H1058V-176.5ZM1046 -176.5H1042V-175.5H1046V-176.5ZM1034 -176.5H1030V-175.5H1034V-176.5ZM1022 -176.5H1018V-175.5H1022V-176.5ZM1010 -176.5H1006V-175.5H1010V-176.5ZM998 -176.5H994V-175.5H998V-176.5ZM986 -176.5H982V-175.5H986V-176.5ZM974 -176.5H970V-175.5H974V-176.5ZM962 -176.5H958V-175.5H962V-176.5ZM950 -176.5H946V-175.5H950V-176.5ZM938 -176.5H934V-175.5H938V-176.5ZM926 -176.5H922V-175.5H926V-176.5ZM914 -176.5H910V-175.5H914V-176.5ZM902 -176.5H898V-175.5H902V-176.5ZM890 -176.5H886V-175.5H890V-176.5ZM878 -176.5H874V-175.5H878V-176.5ZM866 -176.5H862V-175.5H866V-176.5ZM854 -176.5H850V-175.5H854V-176.5ZM842 -176.5H838V-175.5H842V-176.5ZM830 -176.5H826V-175.5H830V-176.5ZM818 -176.5H814V-175.5H818V-176.5ZM806 -176.5H802V-175.5H806V-176.5ZM794 -176.5H790V-175.5H794V-176.5ZM782 -176.5H778V-175.5H782V-176.5ZM770 -176.5H766V-175.5H770V-176.5ZM758 -176.5H754V-175.5H758V-176.5ZM746 -176.5H742V-175.5H746V-176.5ZM734 -176.5H730V-175.5H734V-176.5ZM722 -176.5H718V-175.5H722V-176.5ZM710 -176.5H706V-175.5H710V-176.5ZM698 -176.5H694V-175.5H698V-176.5ZM686 -176.5H682V-175.5H686V-176.5ZM674 -176.5H670V-175.5H674V-176.5ZM662 -176.5H658V-175.5H662V-176.5ZM650 -176.5H646V-175.5H650V-176.5ZM638 -176.5H634V-175.5H638V-176.5ZM626 -176.5H622V-175.5H626V-176.5ZM614 -176.5H610V-175.5H614V-176.5ZM602 -176.5H598V-175.5H602V-176.5ZM590 -176.5H586V-175.5H590V-176.5ZM578 -176.5H574V-175.5H578V-176.5ZM566 -176.5H562V-175.5H566V-176.5ZM554 -176.5H550V-175.5H554V-176.5ZM542 -176.5H538V-175.5H542V-176.5ZM530 -176.5H526V-175.5H530V-176.5ZM518 -176.5H514V-175.5H518V-176.5ZM506 -176.5H502V-175.5H506V-176.5ZM494 -176.5H490V-175.5H494V-176.5ZM482 -176.5H478V-175.5H482V-176.5ZM470 -176.5H466V-175.5H470V-176.5ZM458 -176.5H454V-175.5H458V-176.5ZM446 -176.5H442V-175.5H446V-176.5ZM434 -176.5H430V-175.5H434V-176.5ZM422 -176.5H418V-175.5H422V-176.5ZM410 -176.5H406V-175.5H410V-176.5ZM398 -176.5H394V-175.5H398V-176.5ZM386 -176.5H382V-175.5H386V-176.5ZM374 -176.5H370V-175.5H374V-176.5ZM362 -176.5H358V-175.5H362V-176.5ZM350 -176.5H346V-175.5H350V-176.5ZM338 -176.5H334V-175.5H338V-176.5ZM326 -176.5H322V-175.5H326V-176.5ZM314 -176.5H310V-175.5H314V-176.5ZM302 -176.5H298V-175.5H302V-176.5ZM290 -176.5H286V-175.5H290V-176.5ZM278 -176.5H274V-175.5H278V-176.5ZM266 -176.5H262V-175.5H266V-176.5ZM254 -176.5H250V-175.5H254V-176.5ZM242 -176.5H238V-175.5H242V-176.5ZM230 -176.5H226V-175.5H230V-176.5ZM218 -176.5H214V-175.5H218V-176.5ZM206 -176.5H202V-175.5H206V-176.5ZM194 -176.5H190V-175.5H194V-176.5ZM182 -176.5H178V-175.5H182V-176.5ZM170 -176.5H166V-175.5H170V-176.5ZM158 -176.5H154V-175.5H158V-176.5ZM146 -176.5H142V-175.5H146V-176.5ZM134 -176.5H130V-175.5H134V-176.5ZM122 -176.5H118V-175.5H122V-176.5ZM110 -176.5H106V-175.5H110V-176.5ZM98 -176.5H94.0001V-175.5H98V-176.5ZM85.9999 -176.5H82V-175.5H85.9999V-176.5ZM74 -176.5H70V-175.5H74V-176.5ZM62 -176.5H58V-175.5H62V-176.5ZM50 -176.5H46V-175.5H50V-176.5ZM38 -176.5H34.0001V-175.5H38V-176.5ZM25.9999 -176.5H22V-175.5H25.9999V-176.5ZM14 -176.5H9.99996V-175.5H14V-176.5ZM1.99997 -176.5H0V-175.5H1.99997V-176.5ZM1920 -177H1918V-175H1920V-177ZM1910 -177H1906V-175H1910V-177ZM1898 -177H1894V-175H1898V-177ZM1886 -177H1882V-175H1886V-177ZM1874 -177H1870V-175H1874V-177ZM1862 -177H1858V-175H1862V-177ZM1850 -177H1846V-175H1850V-177ZM1838 -177H1834V-175H1838V-177ZM1826 -177H1822V-175H1826V-177ZM1814 -177H1810V-175H1814V-177ZM1802 -177H1798V-175H1802V-177ZM1790 -177H1786V-175H1790V-177ZM1778 -177H1774V-175H1778V-177ZM1766 -177H1762V-175H1766V-177ZM1754 -177H1750V-175H1754V-177ZM1742 -177H1738V-175H1742V-177ZM1730 -177H1726V-175H1730V-177ZM1718 -177H1714V-175H1718V-177ZM1706 -177H1702V-175H1706V-177ZM1694 -177H1690V-175H1694V-177ZM1682 -177H1678V-175H1682V-177ZM1670 -177H1666V-175H1670V-177ZM1658 -177H1654V-175H1658V-177ZM1646 -177H1642V-175H1646V-177ZM1634 -177H1630V-175H1634V-177ZM1622 -177H1618V-175H1622V-177ZM1610 -177H1606V-175H1610V-177ZM1598 -177H1594V-175H1598V-177ZM1586 -177H1582V-175H1586V-177ZM1574 -177H1570V-175H1574V-177ZM1562 -177H1558V-175H1562V-177ZM1550 -177H1546V-175H1550V-177ZM1538 -177H1534V-175H1538V-177ZM1526 -177H1522V-175H1526V-177ZM1514 -177H1510V-175H1514V-177ZM1502 -177H1498V-175H1502V-177ZM1490 -177H1486V-175H1490V-177ZM1478 -177H1474V-175H1478V-177ZM1466 -177H1462V-175H1466V-177ZM1454 -177H1450V-175H1454V-177ZM1442 -177H1438V-175H1442V-177ZM1430 -177H1426V-175H1430V-177ZM1418 -177H1414V-175H1418V-177ZM1406 -177H1402V-175H1406V-177ZM1394 -177H1390V-175H1394V-177ZM1382 -177H1378V-175H1382V-177ZM1370 -177H1366V-175H1370V-177ZM1358 -177H1354V-175H1358V-177ZM1346 -177H1342V-175H1346V-177ZM1334 -177H1330V-175H1334V-177ZM1322 -177H1318V-175H1322V-177ZM1310 -177H1306V-175H1310V-177ZM1298 -177H1294V-175H1298V-177ZM1286 -177H1282V-175H1286V-177ZM1274 -177H1270V-175H1274V-177ZM1262 -177H1258V-175H1262V-177ZM1250 -177H1246V-175H1250V-177ZM1238 -177H1234V-175H1238V-177ZM1226 -177H1222V-175H1226V-177ZM1214 -177H1210V-175H1214V-177ZM1202 -177H1198V-175H1202V-177ZM1190 -177H1186V-175H1190V-177ZM1178 -177H1174V-175H1178V-177ZM1166 -177H1162V-175H1166V-177ZM1154 -177H1150V-175H1154V-177ZM1142 -177H1138V-175H1142V-177ZM1130 -177H1126V-175H1130V-177ZM1118 -177H1114V-175H1118V-177ZM1106 -177H1102V-175H1106V-177ZM1094 -177H1090V-175H1094V-177ZM1082 -177H1078V-175H1082V-177ZM1070 -177H1066V-175H1070V-177ZM1058 -177H1054V-175H1058V-177ZM1046 -177H1042V-175H1046V-177ZM1034 -177H1030V-175H1034V-177ZM1022 -177H1018V-175H1022V-177ZM1010 -177H1006V-175H1010V-177ZM998 -177H994V-175H998V-177ZM986 -177H982V-175H986V-177ZM974 -177H970V-175H974V-177ZM962 -177H958V-175H962V-177ZM950 -177H946V-175H950V-177ZM938 -177H934V-175H938V-177ZM926 -177H922V-175H926V-177ZM914 -177H910V-175H914V-177ZM902 -177H898V-175H902V-177ZM890 -177H886V-175H890V-177ZM878 -177H874V-175H878V-177ZM866 -177H862V-175H866V-177ZM854 -177H850V-175H854V-177ZM842 -177H838V-175H842V-177ZM830 -177H826V-175H830V-177ZM818 -177H814V-175H818V-177ZM806 -177H802V-175H806V-177ZM794 -177H790V-175H794V-177ZM782 -177H778V-175H782V-177ZM770 -177H766V-175H770V-177ZM758 -177H754V-175H758V-177ZM746 -177H742V-175H746V-177ZM734 -177H730V-175H734V-177ZM722 -177H718V-175H722V-177ZM710 -177H706V-175H710V-177ZM698 -177H694V-175H698V-177ZM686 -177H682V-175H686V-177ZM674 -177H670V-175H674V-177ZM662 -177H658V-175H662V-177ZM650 -177H646V-175H650V-177ZM638 -177H634V-175H638V-177ZM626 -177H622V-175H626V-177ZM614 -177H610V-175H614V-177ZM602 -177H598V-175H602V-177ZM590 -177H586V-175H590V-177ZM578 -177H574V-175H578V-177ZM566 -177H562V-175H566V-177ZM554 -177H550V-175H554V-177ZM542 -177H538V-175H542V-177ZM530 -177H526V-175H530V-177ZM518 -177H514V-175H518V-177ZM506 -177H502V-175H506V-177ZM494 -177H490V-175H494V-177ZM482 -177H478V-175H482V-177ZM470 -177H466V-175H470V-177ZM458 -177H454V-175H458V-177ZM446 -177H442V-175H446V-177ZM434 -177H430V-175H434V-177ZM422 -177H418V-175H422V-177ZM410 -177H406V-175H410V-177ZM398 -177H394V-175H398V-177ZM386 -177H382V-175H386V-177ZM374 -177H370V-175H374V-177ZM362 -177H358V-175H362V-177ZM350 -177H346V-175H350V-177ZM338 -177H334V-175H338V-177ZM326 -177H322V-175H326V-177ZM314 -177H310V-175H314V-177ZM302 -177H298V-175H302V-177ZM290 -177H286V-175H290V-177ZM278 -177H274V-175H278V-177ZM266 -177H262V-175H266V-177ZM254 -177H250V-175H254V-177ZM242 -177H238V-175H242V-177ZM230 -177H226V-175H230V-177ZM218 -177H214V-175H218V-177ZM206 -177H202V-175H206V-177ZM194 -177H190V-175H194V-177ZM182 -177H178V-175H182V-177ZM170 -177H166V-175H170V-177ZM158 -177H154V-175H158V-177ZM146 -177H142V-175H146V-177ZM134 -177H130V-175H134V-177ZM122 -177H118V-175H122V-177ZM110 -177H106V-175H110V-177ZM98 -177H94.0001V-175H98V-177ZM85.9999 -177H82V-175H85.9999V-177ZM74 -177H70V-175H74V-177ZM62 -177H58V-175H62V-177ZM50 -177H46V-175H50V-177ZM38 -177H34.0001V-175H38V-177ZM25.9999 -177H22V-175H25.9999V-177ZM14 -177H9.99996V-175H14V-177ZM1.99997 -177H0V-175H1.99997V-177Z" fill="#C7B79F" mask="url(#path-1-inside-1_2533_1061)"/>
<g clip-path="url(#clip1_2533_1061)">
<path d="M2063.97 1500.52L2058 1445.21C2052.02 1389.9 2040.08 1279.28 2017.95 1179.89C1998.44 1082.05 1971.35 996.981 1861.03 1052.43C1748.11 1106.33 1554.55 1302.3 1504.77 1255.55C1454.98 1208.81 1548.97 919.346 1526.85 819.958C1507.33 722.114 1374.31 815.885 1301.83 807.462C1226.74 797.494 1214.79 686.875 1165 640.129C1115.22 593.382 1027.6 610.507 922.242 651.637C819.489 694.31 701.603 762.533 636.685 741.335C569.16 718.593 557.211 607.974 507.427 561.228C457.644 514.481 370.025 531.606 332.768 457.766C298.118 385.471 316.438 223.755 281.788 151.46C244.531 77.6206 156.912 94.7456 84.4275 86.322C11.9427 77.8983 -45.4081 43.926 -97.7988 -4.36484C-147.583 -51.1115 -189.799 -110.632 -269.851 -106.282C-352.51 -103.475 -470.397 -35.2529 -527.748 -69.2253C-585.098 -103.198 -581.913 -239.365 -664.572 -236.558C-744.624 -232.207 -907.912 -87.339 -957.696 -134.086C-1010.09 -182.377 -946.366 -420.738 -914.505 -539.919L-882.644 -659.1" stroke="#DBCBB4" stroke-width="21.1421"/>
<path d="M2063.97 1500.52L2058 1445.21C2052.02 1389.9 2040.08 1279.28 2017.95 1179.89C1998.44 1082.05 1971.35 996.981 1861.03 1052.43C1748.11 1106.33 1554.55 1302.3 1504.77 1255.55C1454.98 1208.81 1548.97 919.346 1526.85 819.958C1507.33 722.114 1374.31 815.885 1301.83 807.462C1226.74 797.494 1214.79 686.875 1165 640.129C1115.22 593.382 1027.6 610.507 922.242 651.637C819.489 694.31 701.603 762.533 636.685 741.335C569.16 718.593 557.211 607.974 507.427 561.228C457.644 514.481 370.025 531.606 332.768 457.766C298.118 385.471 316.438 223.755 281.788 151.46C244.531 77.6206 156.912 94.7456 84.4275 86.322C11.9427 77.8983 -45.4081 43.926 -97.7988 -4.36484C-147.583 -51.1115 -189.799 -110.632 -269.851 -106.282C-352.51 -103.475 -470.397 -35.2529 -527.748 -69.2253C-585.098 -103.198 -581.913 -239.365 -664.572 -236.558C-744.624 -232.207 -907.912 -87.339 -957.696 -134.086C-1010.09 -182.377 -946.366 -420.738 -914.505 -539.919L-882.644 -659.1" stroke="#ECDECA" stroke-width="3.52368" stroke-dasharray="14.09 14.09"/>
</g>
<g clip-path="url(#clip2_2533_1061)">
<path d="M3220.97 -703.48L3215 -648.171C3209.02 -592.862 3197.08 -482.244 3174.95 -382.856C3155.44 -285.012 3128.35 -199.942 3018.03 -255.39C2905.11 -309.294 2711.55 -505.26 2661.77 -458.513C2611.98 -411.766 2705.97 -122.307 2683.85 -22.9191C2664.33 74.9249 2531.31 -18.8462 2458.83 -10.4225C2383.74 -0.454662 2371.79 110.164 2322 156.91C2272.22 203.657 2184.6 186.532 2079.24 145.402C1976.49 102.729 1858.6 34.5064 1793.68 55.7044C1726.16 78.4466 1714.21 189.065 1664.43 235.812C1614.64 282.558 1527.02 265.433 1489.77 339.273C1455.12 411.568 1473.44 573.284 1438.79 645.579C1401.53 719.418 1313.91 702.293 1241.43 710.717C1168.94 719.141 1111.59 753.113 1059.2 801.404C1009.42 848.151 967.201 907.672 887.149 903.321C804.49 900.514 686.603 832.292 629.252 866.264C571.902 900.237 575.087 1036.4 492.428 1033.6C412.376 1029.25 249.088 884.378 199.304 931.125C146.913 979.416 210.634 1217.78 242.495 1336.96L274.356 1456.14" stroke="#DBCBB4" stroke-width="21.1421"/>
<path d="M3220.97 -703.48L3215 -648.171C3209.02 -592.862 3197.08 -482.244 3174.95 -382.856C3155.44 -285.012 3128.35 -199.942 3018.03 -255.39C2905.11 -309.294 2711.55 -505.26 2661.77 -458.513C2611.98 -411.766 2705.97 -122.307 2683.85 -22.9191C2664.33 74.9249 2531.31 -18.8462 2458.83 -10.4225C2383.74 -0.454662 2371.79 110.164 2322 156.91C2272.22 203.657 2184.6 186.532 2079.24 145.402C1976.49 102.729 1858.6 34.5064 1793.68 55.7044C1726.16 78.4466 1714.21 189.065 1664.43 235.812C1614.64 282.558 1527.02 265.433 1489.77 339.273C1455.12 411.568 1473.44 573.284 1438.79 645.579C1401.53 719.418 1313.91 702.293 1241.43 710.717C1168.94 719.141 1111.59 753.113 1059.2 801.404C1009.42 848.151 967.201 907.672 887.149 903.321C804.49 900.514 686.603 832.292 629.252 866.264C571.902 900.237 575.087 1036.4 492.428 1033.6C412.376 1029.25 249.088 884.378 199.304 931.125C146.913 979.416 210.634 1217.78 242.495 1336.96L274.356 1456.14" stroke="#ECDECA" stroke-width="3.52368" stroke-dasharray="14.09 14.09"/>
</g>
</g>
<defs>
<clipPath id="clip0_2533_1061">
<rect width="1920" height="250" fill="white"/>
</clipPath>
<clipPath id="clip1_2533_1061">
<rect width="360" height="362" fill="white" transform="translate(0 -112.387)"/>
</clipPath>
<clipPath id="clip2_2533_1061">
<rect width="360" height="362" fill="white" transform="translate(1560 -112.387)"/>
</clipPath>
</defs>
</svg>
