<svg width="8" height="302" viewBox="0 0 8 302" fill="none" xmlns="http://www.w3.org/2000/svg">
<path d="M4.53194 67.4011C4.89241 66.854 5.66727 66.4317 5.80876 65.827C5.96036 65.2007 6.22988 64.584 6.33769 63.9505C6.45223 63.2979 6.48929 62.6428 6.49939 61.9877C6.52298 60.6608 6.47581 59.365 6.2703 58.0428C6.021 56.4351 5.71443 54.8322 5.51229 53.2221C5.37754 52.1423 5.28994 51.0793 5.50219 50.0019C5.5763 49.6372 5.53251 49.2556 5.52577 48.8909C5.51229 48.1254 5.47861 47.3576 5.44492 46.5921C5.34048 44.2717 5.20572 41.9489 5.06422 39.6286C4.89915 36.8811 4.72396 34.1336 4.54541 31.3861C4.38707 28.9601 4.22536 26.5342 4.06702 24.1106C3.97943 22.7885 3.87836 21.4663 3.81435 20.1441C3.75371 18.8867 3.91542 17.6174 3.98279 16.36C4.1344 13.5477 4.286 10.7354 4.42413 7.92313C4.53867 5.56195 4.67679 3.19843 4.69027 0.83725C4.69027 0.56131 4.69027 0.282928 4.6768 0.00698832C4.6768 -0.00982686 2.99233 0.00936877 2.99233 0.00698839C3.1035 1.94821 2.92158 3.9039 2.83399 5.84512C2.7026 8.73901 2.54763 11.6305 2.39266 14.5219C2.29833 16.3048 2.14336 18.0901 2.11977 19.873C2.1063 20.8352 2.22421 21.8022 2.28822 22.7621C2.43309 24.9817 2.58132 27.1989 2.72618 29.4185C2.90811 32.166 3.08329 34.9158 3.25511 37.6633C3.41008 40.1565 3.55831 42.652 3.68633 45.1452C3.76045 46.6377 3.87162 48.1326 3.83793 49.6252C3.82446 50.1555 3.66275 50.6762 3.66275 51.2113C3.66612 52.711 3.94574 54.2155 4.19504 55.7056C4.4376 57.1718 4.74081 58.6403 4.83514 60.1112C4.87893 60.7783 4.82166 61.4502 4.80482 62.1197C4.7745 63.401 4.49151 64.6296 4.10071 65.8846C3.91542 66.4797 3.13719 66.8996 2.80704 67.4515C2.54426 67.8882 2.64533 68.3201 2.9519 68.7305C2.61838 70.2782 2.54763 71.8331 2.87105 73.388C3.24837 75.1805 3.98617 76.9178 4.12766 78.7295C4.43087 82.6144 4.75766 86.4848 4.79808 90.3769C4.83851 94.1683 5.05749 97.9212 5.50219 101.705C5.95363 105.525 6.51961 109.396 6.1086 113.223C5.7077 116.988 4.70712 120.727 4.13103 124.482C3.54821 128.3 3.58864 132.072 4.43424 135.877C5.26637 139.628 6.14566 143.297 6.24673 147.086C6.35116 151.024 6.06817 154.961 5.9132 158.899C5.83909 160.831 5.87614 162.707 5.34385 164.612C4.83177 166.441 4.50162 168.286 4.26916 170.134C3.79751 173.846 3.69981 177.57 3.21805 181.282C2.96875 183.211 2.50721 185.126 2.49036 187.063C2.47689 188.872 2.69587 190.679 2.76662 192.486C2.91485 196.349 3.12372 200.207 3.15068 204.073C3.20795 211.903 2.75314 219.721 2.25791 227.543C2.01535 231.363 2.15684 235.181 2.19727 239.001C2.23433 242.764 1.68856 246.517 1.01814 250.257C0.340987 254.034 -0.204782 257.785 0.0748399 261.586C0.354462 265.43 1.20006 269.252 1.93786 273.075C3.42356 280.773 3.26859 288.511 3.10688 296.245C3.06646 298.162 3.02266 300.077 2.98897 301.994C2.98897 301.999 4.67344 302.004 4.67344 301.994C4.81157 294.251 5.12488 286.503 4.53194 278.762C3.94575 271.11 1.04173 263.609 1.82332 255.911C2.20738 252.134 2.99234 248.359 3.54484 244.59C4.10409 240.784 3.79751 236.964 3.80425 233.151C3.81773 225.398 4.67007 217.652 4.80482 209.899C4.8722 206.017 4.85199 202.134 4.71049 198.254C4.57237 194.528 4.14788 190.791 4.1782 187.065C4.20852 183.281 5.14509 179.473 5.43818 175.686C5.72454 171.986 6.00753 168.276 7.03169 164.615C8.09964 160.797 7.72232 156.751 7.87055 152.878C8.01879 149.044 8.19734 145.135 7.41575 141.317C6.651 137.581 5.42471 133.893 5.3708 130.119C5.3169 126.354 6.12544 122.61 6.85987 118.874C7.60104 115.104 8.039 111.395 7.78296 107.599C7.52355 103.75 6.89356 99.9128 6.59036 96.0663C6.29052 92.2702 6.52298 88.4621 6.31747 84.6612C6.20967 82.6815 5.9671 80.7091 5.8155 78.7319C5.674 76.9202 4.93284 75.1805 4.55889 73.3904C4.24221 71.8763 4.29948 70.3622 4.61279 68.8528C4.68691 68.8528 4.73744 68.8577 4.74418 68.8649C4.70712 68.8217 4.67343 68.7761 4.63974 68.7305C4.67343 68.5769 4.70712 68.4233 4.74418 68.2698C4.74418 68.2818 4.59931 68.2818 4.40055 68.2769C4.30959 67.989 4.33317 67.6939 4.52857 67.4011L4.53194 67.4011Z" fill="#C86F49"/>
</svg>
