<svg width="48" height="48" viewBox="0 0 48 48" fill="none" xmlns="http://www.w3.org/2000/svg">
<path d="M12.375 29.7246C12.375 31.0186 11.325 32.0688 10.0312 32.0688C6.91875 31.9469 6.91875 27.5022 10.0312 27.3803C11.325 27.3803 12.375 28.4306 12.375 29.7246ZM16.9688 31.3186C15.675 31.3186 14.625 32.3688 14.625 33.6628C14.7469 36.7759 19.1906 36.7759 19.3125 33.6628C19.3125 32.3688 18.2625 31.3186 16.9688 31.3186ZM23.9062 35.3507C22.6125 35.3507 21.5625 36.4009 21.5625 37.6949C21.6844 40.808 26.1281 40.808 26.25 37.6949C26.25 36.4009 25.2 35.3507 23.9062 35.3507ZM30.9375 39.3827C29.6437 39.3827 28.5938 40.4329 28.5938 41.7269C28.7156 44.84 33.1594 44.84 33.2812 41.7269C33.2812 40.4329 32.2313 39.3827 30.9375 39.3827ZM37.9688 43.321C36.675 43.321 35.625 44.3712 35.625 45.6652C35.7469 48.7783 40.1906 48.7783 40.3125 45.6652C40.3125 44.3712 39.2625 43.321 37.9688 43.321ZM13.95 21.7261C18.0094 16.5782 20.0625 12.64 20.0625 10.0426C20.0625 4.50088 15.5625 0 10.0312 0C4.5 0 0 4.50088 0 10.0426C0 12.64 2.05312 16.5689 6.1125 21.7261C7.05937 22.9357 8.49375 23.6296 10.0312 23.6296C11.5687 23.6296 12.9938 22.9357 13.95 21.7261ZM16.3125 10.0426C16.3125 11.3085 14.9156 14.4309 11.0063 19.4007C10.4906 20.0289 9.58125 20.0383 9.06562 19.4007C5.14687 14.4309 3.75 11.3085 3.75 10.0426C3.75 6.57316 6.57187 3.74136 10.0312 3.74136C13.4906 3.74136 16.3125 6.57316 16.3125 10.0426ZM41.8875 36.729C45.9469 31.5812 48 27.6429 48 25.0455C48 19.5038 43.5 14.9936 37.9688 14.9936C32.4375 14.9936 27.9375 19.5038 27.9375 25.0455C27.9375 27.6429 29.9906 31.5718 34.05 36.729C34.9969 37.9387 36.4313 38.6325 37.9688 38.6325C39.5062 38.6325 40.9312 37.9387 41.8875 36.729ZM44.25 25.0455C44.25 26.3114 42.8531 29.4339 38.9437 34.4036C38.4281 35.0318 37.5188 35.0412 37.0031 34.4036C33.0844 29.4339 31.6969 26.3114 31.6969 25.0455C31.6969 21.5761 34.5188 18.7443 37.9781 18.7443C41.4375 18.7443 44.25 21.5761 44.25 25.0455ZM10.0312 7.50147C11.325 7.50147 12.375 8.55167 12.375 9.84567C12.2531 12.9588 7.80937 12.9588 7.6875 9.84567C7.6875 8.55167 8.7375 7.50147 10.0312 7.50147ZM35.625 24.8486C35.625 26.1426 36.675 27.1928 37.9688 27.1928C41.0813 27.0709 41.0813 22.6263 37.9688 22.5044C36.675 22.5044 35.625 23.5546 35.625 24.8486Z" fill="#1E3D1E"/>
</svg>
