<svg width="254" height="254" viewBox="0 0 254 254" fill="none" xmlns="http://www.w3.org/2000/svg">
<path d="M127.008 246.995C60.838 246.995 7.00635 193.164 7.00635 126.994C7.00635 60.8247 60.838 7.00781 127.008 7.00781C193.177 7.00781 247.009 60.8394 247.009 127.009C247.009 193.179 193.177 247.01 127.008 247.01V246.995ZM127.008 9.94542C62.4536 9.94542 9.94395 62.4551 9.94395 126.994C9.94395 191.533 62.4536 244.058 127.008 244.058C191.561 244.058 244.071 191.548 244.071 126.994C244.071 62.4404 191.547 9.94542 127.008 9.94542Z" fill="#A63D11"/>
<path d="M126.993 185.894C94.5175 185.894 68.1084 159.47 68.1084 127.009C68.1084 94.5488 94.5322 68.125 126.993 68.125C159.453 68.125 185.892 94.5488 185.892 127.009C185.892 159.47 159.468 185.894 126.993 185.894ZM126.993 69.5791C95.3253 69.5791 69.5772 95.3419 69.5772 126.995C69.5772 158.647 95.34 184.41 126.993 184.41C158.645 184.41 184.423 158.647 184.423 126.995C184.423 95.3419 158.66 69.5791 126.993 69.5791Z" fill="#A63D11"/>
<path d="M126.992 238.885C65.3027 238.885 15.1138 188.696 15.1138 127.007C15.1138 65.3169 65.3027 15.1133 126.992 15.1133C188.682 15.1133 238.871 65.3023 238.871 126.992C238.871 188.682 188.682 238.871 126.992 238.871V238.885ZM126.992 16.5821C66.1106 16.5821 16.5826 66.1101 16.5826 126.992C16.5826 187.874 66.1106 237.402 126.992 237.402C187.874 237.402 237.402 187.874 237.402 126.992C237.402 66.1101 187.889 16.5821 126.992 16.5821Z" fill="#A63D11"/>
<path d="M90.1591 28.9012L87.4224 29.9688L92.7869 43.7209L95.5236 42.6534L90.1591 28.9012Z" fill="#A63D11"/>
<path d="M161.214 211.041L158.478 212.109L163.839 225.847L166.576 224.779L161.214 211.041Z" fill="#A63D11"/>
<path d="M167.839 30.4793L161.915 44L164.606 45.1789L170.53 31.6582L167.839 30.4793Z" fill="#A63D11"/>
<path d="M89.4009 209.575L83.4829 223.082L86.1736 224.261L92.0916 210.754L89.4009 209.575Z" fill="#A63D11"/>
<path d="M222.973 84.4064L209.417 90.25L210.58 92.9476L224.135 87.1041L222.973 84.4064Z" fill="#A63D11"/>
<path d="M43.4281 161.828L29.8726 167.672L31.0355 170.37L44.591 164.526L43.4281 161.828Z" fill="#A63D11"/>
<path d="M211.673 159.082L210.599 161.816L224.324 167.209L225.399 164.475L211.673 159.082Z" fill="#A63D11"/>
<path d="M29.6836 87.5745L28.6094 90.3086L42.3484 95.7067L43.4227 92.9726L29.6836 87.5745Z" fill="#A63D11"/>
<path fill-rule="evenodd" clip-rule="evenodd" d="M254 126.992L163.243 141.988L184.981 184.98L141.989 163.242L126.993 254L112.011 163.242L69.7681 184.98L90.7573 141.988L0 126.992L90.7573 112.012L65.4941 65.1133L112.011 90.7578L126.993 0L141.989 90.7578L188.888 65.1133L163.243 112.012L254 126.992ZM126.993 126.234V126.691L95.4575 114.051L11.7944 126.992L126.993 126.996L127.107 127.262L95.7515 140.68L74.0425 180.91L127.217 127.52L127.379 127.898L114.787 159.293L127.742 242.953V128.75L140.682 158.996L181.206 180.91L127.742 127.742V127.297L159.292 139.945L242.955 126.992H127.742L127.627 126.727L158.998 113.32L184.981 69.0195L127.518 126.469L127.356 126.09L139.948 94.7109L126.993 11.0469V125.238L114.067 95L72.5439 71.207L126.993 126.234ZM127.21 126.453L127.098 126.734L127.21 126.777L127.371 126.617L127.21 126.453ZM127.522 126.77L127.742 126.992L127.36 126.84L127.522 126.77ZM126.993 126.996L127.375 127.148L127.215 127.219L126.993 126.996ZM127.525 127.211L127.637 127.254L127.527 127.527L127.367 127.367L127.525 127.211Z" fill="#A63D11"/>
</svg>
