<svg width="98" height="98" viewBox="0 0 98 98" fill="none" xmlns="http://www.w3.org/2000/svg">
<path d="M25.2656 60.6758C25.2656 63.3172 23.1219 65.4609 20.4805 65.4609C14.1258 65.2121 14.1258 56.1395 20.4805 55.8906C23.1219 55.8906 25.2656 58.0344 25.2656 60.6758ZM34.6445 63.9297C32.0031 63.9297 29.8594 66.0734 29.8594 68.7148C30.1082 75.0695 39.1809 75.0695 39.4297 68.7148C39.4297 66.0734 37.2859 63.9297 34.6445 63.9297ZM48.8086 72.1602C46.1672 72.1602 44.0234 74.3039 44.0234 76.9453C44.2723 83.3 53.3449 83.3 53.5938 76.9453C53.5938 74.3039 51.45 72.1602 48.8086 72.1602ZM63.1641 80.3906C60.5227 80.3906 58.3789 82.5344 58.3789 85.1758C58.6277 91.5305 67.7004 91.5305 67.9492 85.1758C67.9492 82.5344 65.8055 80.3906 63.1641 80.3906ZM77.5195 88.4297C74.8781 88.4297 72.7344 90.5734 72.7344 93.2148C72.9832 99.5695 82.0559 99.5695 82.3047 93.2148C82.3047 90.5734 80.1609 88.4297 77.5195 88.4297ZM28.4813 44.3488C36.7691 33.8406 40.9609 25.8016 40.9609 20.4996C40.9609 9.1875 31.7734 0 20.4805 0C9.1875 0 0 9.1875 0 20.4996C0 25.8016 4.1918 33.8215 12.4797 44.3488C14.4129 46.818 17.3414 48.2344 20.4805 48.2344C23.6195 48.2344 26.5289 46.818 28.4813 44.3488ZM33.3047 20.4996C33.3047 23.0836 30.4527 29.4574 22.4711 39.602C21.4184 40.8844 19.5617 40.9035 18.509 39.602C10.5082 29.4574 7.65625 23.0836 7.65625 20.4996C7.65625 13.4176 13.4176 7.63711 20.4805 7.63711C27.5434 7.63711 33.3047 13.4176 33.3047 20.4996ZM85.5203 74.9738C93.8082 64.4656 98 56.4266 98 51.1246C98 39.8125 88.8125 30.6059 77.5195 30.6059C66.2266 30.6059 57.0391 39.8125 57.0391 51.1246C57.0391 56.4266 61.2309 64.4465 69.5188 74.9738C71.452 77.443 74.3805 78.8594 77.5195 78.8594C80.6586 78.8594 83.568 77.443 85.5203 74.9738ZM90.3438 51.1246C90.3438 53.7086 87.4918 60.0824 79.5102 70.227C78.4574 71.5094 76.6008 71.5285 75.548 70.227C67.5473 60.0824 64.7145 53.7086 64.7145 51.1246C64.7145 44.0426 70.4758 38.2621 77.5387 38.2621C84.6016 38.2621 90.3438 44.0426 90.3438 51.1246ZM20.4805 15.3125C23.1219 15.3125 25.2656 17.4562 25.2656 20.0977C25.0168 26.4523 15.9441 26.4523 15.6953 20.0977C15.6953 17.4562 17.8391 15.3125 20.4805 15.3125ZM72.7344 50.7227C72.7344 53.3641 74.8781 55.5078 77.5195 55.5078C83.8742 55.259 83.8742 46.1863 77.5195 45.9375C74.8781 45.9375 72.7344 48.0812 72.7344 50.7227Z" fill="#3B3634"/>
</svg>
