<svg width="32" height="32" viewBox="0 0 32 32" fill="none" xmlns="http://www.w3.org/2000/svg">
<path d="M17.6018 32H8.87085C4.71468 32 1.33337 28.6355 1.33337 24.5V7.5C1.33337 3.3645 4.71468 0 8.87085 0H17.6018C20.2842 0 22.7857 1.43656 24.1301 3.74906C24.4775 4.34663 24.2724 5.11125 23.6717 5.457C23.0711 5.80262 22.3027 5.5985 21.9553 5.00094C21.0584 3.45831 19.3903 2.5 17.6018 2.5H8.87085C6.10007 2.5 3.84587 4.743 3.84587 7.5V24.5C3.84587 27.257 6.10007 29.5 8.87085 29.5H17.6018C20.3725 29.5 22.6267 27.257 22.6267 24.5C22.6267 23.8096 23.1892 23.25 23.883 23.25C24.5768 23.25 25.1392 23.8096 25.1392 24.5C25.1392 28.6355 21.7579 32 17.6018 32ZM13.3305 23.5625C12.4633 23.5625 11.7602 24.2621 11.7602 25.125C11.8432 27.1981 14.8186 27.1966 14.9008 25.125C14.9008 24.2621 14.1978 23.5625 13.3305 23.5625ZM26.5697 9.14181C26.5696 9.14181 26.5696 9.14181 26.5697 9.14181C25.2904 7.46331 22.6009 7.46356 21.3219 9.14181C19.5989 11.3181 17.2249 17.3503 17.2249 19.5521C17.2249 20.5033 17.5992 21.0678 17.9133 21.3738C18.2 21.6685 18.8157 22.028 19.6381 21.9993C21.0595 21.9696 22.9051 20.9576 23.946 20.3089C25.0132 20.9723 26.909 22.0122 28.3555 21.9994C29.1988 21.9909 29.7215 21.6368 30.0114 21.3412C30.3104 21.0364 30.6667 20.4787 30.6667 19.5521C30.6667 17.3503 28.2927 11.3181 26.5697 9.14181ZM25.1392 18.1004V16.3126C25.0729 14.6541 22.6925 14.6554 22.6267 16.3126V18.1799C21.6832 18.7654 20.4591 19.3914 19.7386 19.4874C19.7962 17.8946 21.8842 12.4714 23.2956 10.6889C23.6383 10.2671 24.2528 10.2665 24.5961 10.6889H24.596C26.0075 12.4716 28.0957 17.8952 28.153 19.4876C27.4106 19.3888 26.0921 18.702 25.1392 18.1004Z" fill="#1E3D1E"/>
</svg>
