<svg width="32" height="32" viewBox="0 0 32 32" fill="none" xmlns="http://www.w3.org/2000/svg">
<path d="M27.7149 2.23878L23.693 0.603722C22.2649 0.0231725 20.7082 -0.139146 19.1911 0.134134C19.1801 0.136134 19.1691 0.138258 19.1582 0.140569L10.7486 1.88984L7.15086 0.395044C7.14793 0.393794 7.14499 0.392607 7.14199 0.39142C3.80286 -1.02028 -0.0497014 1.57214 0.000485205 5.19507V23.4C0.000485205 26.2091 1.68246 28.708 4.28554 29.7663L8.30741 31.4013C9.28464 31.7986 10.3221 32 11.3659 32C11.8475 32 12.3303 31.9571 12.8093 31.8709C12.8205 31.8688 12.8317 31.8667 12.8429 31.8643L21.2522 30.11L24.8496 31.6046C24.8525 31.6059 24.8554 31.6071 24.8584 31.6083C26.4604 32.2595 28.2736 32.0721 29.7085 31.1071C31.1433 30.1419 32 28.5335 32 26.8046V8.60508C31.9999 5.79593 30.318 3.29704 27.7149 2.23878ZM29.5 26.8047C29.5 27.7137 29.0673 28.5261 28.3128 29.0336C27.5596 29.5403 26.6455 29.6354 25.8043 29.2951L21.8549 27.6541C21.6224 27.5575 21.3661 27.5334 21.1198 27.5848L12.35 29.4143C11.3045 29.5995 10.2328 29.4862 9.24927 29.0863L5.22733 27.4513C3.57086 26.7779 2.50051 25.1877 2.50051 23.4V5.19507C2.50051 4.28601 2.93319 3.47361 3.68767 2.96609C4.44372 2.45696 5.36108 2.36605 6.19619 2.70468L10.1456 4.34562C10.3778 4.44208 10.6338 4.46639 10.88 4.41509L19.6503 2.59079C20.6957 2.4056 21.7676 2.51881 22.7513 2.91873L26.7732 4.55373C28.4297 5.22719 29.5 6.81739 29.5 8.60508V26.8047H29.5ZM12.4378 14.3129C12.4378 15.1756 11.7382 15.8749 10.8753 15.8749C8.80271 15.7926 8.80327 12.8329 10.8753 12.751C11.7382 12.751 12.4378 13.4503 12.4378 14.3129ZM22.6876 17.8117C22.6876 18.6744 21.988 19.3737 21.1251 19.3737C19.0525 19.2914 19.0531 16.3317 21.1251 16.2498C21.988 16.2498 22.6876 16.9491 22.6876 17.8117ZM10.8753 10.5642C10.1849 10.5642 9.62532 10.0048 9.62532 9.31465V8.06508C9.69132 6.40715 12.0598 6.4084 12.1253 8.06508V9.31465C12.1253 10.0048 11.5657 10.5642 10.8753 10.5642ZM12.1253 25.7465V19.3112C12.0593 17.6533 9.69076 17.6545 9.62532 19.3112V25.7465C9.62532 26.4366 10.1849 26.996 10.8753 26.996C11.5657 26.996 12.1253 26.4366 12.1253 25.7465ZM22.3751 23.9971V22.81C22.3091 21.1521 19.9406 21.1533 19.8751 22.81V23.9971C19.8751 24.6872 20.4348 25.2466 21.1251 25.2466C21.8155 25.2466 22.3751 24.6872 22.3751 23.9971ZM22.3751 12.8134V6.31569C22.3091 4.65776 19.9406 4.65901 19.8751 6.31569V12.8134C19.8751 13.5036 20.4348 14.063 21.1251 14.063C21.8155 14.063 22.3751 13.5036 22.3751 12.8134Z" fill="#1E3D1E"/>
</svg>
