<svg width="568" height="8" viewBox="0 0 568 8" fill="none" xmlns="http://www.w3.org/2000/svg">
<path d="M441.232 4.53195C442.261 4.89242 443.056 5.66728 444.193 5.80877C445.371 5.96038 446.531 6.22989 447.722 6.3377C448.95 6.45224 450.182 6.4893 451.414 6.4994C453.91 6.52299 456.347 6.47582 458.833 6.27032C461.857 6.02101 464.872 5.71444 467.9 5.51231C469.931 5.37755 471.93 5.28996 473.957 5.5022C474.643 5.57632 475.36 5.53252 476.046 5.52578C477.486 5.51231 478.93 5.47862 480.37 5.44493C484.734 5.34049 489.103 5.20573 493.467 5.06424C498.634 4.89916 503.802 4.72398 508.969 4.54542C513.532 4.38708 518.095 4.22537 522.653 4.06703C525.14 3.97944 527.626 3.87837 530.113 3.81436C532.478 3.75372 534.865 3.91543 537.23 3.98281C542.52 4.13441 547.809 4.28601 553.098 4.42414C557.539 4.53868 561.984 4.67681 566.425 4.69028C566.944 4.69028 567.468 4.69029 567.987 4.67681C568.018 4.67681 567.982 2.99234 567.987 2.99234C564.336 3.10352 560.658 2.92159 557.007 2.834C551.564 2.70261 546.125 2.54764 540.687 2.39267C537.334 2.29834 533.976 2.14337 530.623 2.11979C528.813 2.10631 526.995 2.22422 525.189 2.28823C521.015 2.4331 516.845 2.58133 512.67 2.7262C507.502 2.90812 502.33 3.0833 497.163 3.25512C492.474 3.41009 487.78 3.55832 483.091 3.68634C480.284 3.76046 477.472 3.87163 474.665 3.83794C473.668 3.82447 472.689 3.66276 471.682 3.66276C468.861 3.66613 466.032 3.94575 463.229 4.19505C460.472 4.43762 457.71 4.74082 454.943 4.83515C453.688 4.87894 452.425 4.82167 451.166 4.80483C448.756 4.77451 446.445 4.49152 444.085 4.10072C442.965 3.91543 442.176 3.1372 441.138 2.80705C440.316 2.54427 439.504 2.64534 438.732 2.95191C435.821 2.61839 432.897 2.54764 429.972 2.87106C426.601 3.24838 423.333 3.98618 419.926 4.12767C412.619 4.43088 405.34 4.75766 398.02 4.79809C390.889 4.83852 383.83 5.0575 376.713 5.5022C369.528 5.95364 362.249 6.51962 355.05 6.10861C347.969 5.70771 340.938 4.70713 333.875 4.13104C326.695 3.54822 319.6 3.58864 312.442 4.43425C305.388 5.26637 298.488 6.14567 291.362 6.24673C283.956 6.35117 276.55 6.06818 269.144 5.91321C265.511 5.83909 261.982 5.87615 258.398 5.34386C254.959 4.83178 251.489 4.50162 248.014 4.26917C241.032 3.79752 234.028 3.69982 227.046 3.21806C223.417 2.96876 219.816 2.50721 216.174 2.49037C212.771 2.47689 209.373 2.69587 205.974 2.76662C198.708 2.91485 191.451 3.12373 184.18 3.15068C169.454 3.20795 154.751 2.75315 140.038 2.25791C132.853 2.01535 125.673 2.15685 118.488 2.19727C111.411 2.23433 104.353 1.68856 97.3171 1.01814C90.2135 0.340989 83.1595 -0.20478 76.0108 0.0748416C68.7808 0.354463 61.5915 1.20007 54.4021 1.93786C39.9242 3.42356 25.3695 3.26859 10.8238 3.10688C7.21782 3.06646 3.61638 3.02266 0.0104225 2.98897C0.00139635 2.98897 -0.00762982 4.67344 0.0104225 4.67344C14.5742 4.81157 29.1469 5.12488 43.7061 4.53195C58.0984 3.94575 72.2063 1.04173 86.6842 1.82332C93.7878 2.20738 100.887 2.99234 107.977 3.54485C115.135 4.10409 122.32 3.79752 129.491 3.80425C144.073 3.81773 158.641 4.67007 173.223 4.80483C180.525 4.87221 187.827 4.85199 195.125 4.7105C202.134 4.57237 209.16 4.14789 216.169 4.17821C223.286 4.20853 230.449 5.14509 237.57 5.43819C244.529 5.72455 251.507 6.00754 258.394 7.0317C265.574 8.09965 273.183 7.72233 280.467 7.87056C287.679 8.01879 295.031 8.19735 302.211 7.41575C309.238 6.65101 316.175 5.42471 323.274 5.37081C330.355 5.31691 337.395 6.12545 344.422 6.85988C351.512 7.60105 358.489 8.03901 365.629 7.78297C372.868 7.52356 380.085 6.89357 387.319 6.59037C394.459 6.29053 401.621 6.52299 408.77 6.31748C412.493 6.20967 416.203 5.96711 419.922 5.81551C423.329 5.67401 426.601 4.93285 429.968 4.5589C432.815 4.24222 435.663 4.29949 438.502 4.6128C438.502 4.68692 438.493 4.73745 438.479 4.74419C438.561 4.70713 438.646 4.67344 438.732 4.63975C439.021 4.67344 439.31 4.70713 439.599 4.74419C439.576 4.74419 439.576 4.59932 439.585 4.40056C440.127 4.3096 440.682 4.33318 441.232 4.52858V4.53195Z" fill="#C86F49"/>
</svg>
