<svg width="720" height="4" viewBox="0 0 720 4" fill="none" xmlns="http://www.w3.org/2000/svg">
<mask id="path-1-inside-1_2364_3784" fill="white">
<path d="M160.691 1.73402C159.387 1.55379 158.38 1.16637 156.939 1.09562C155.445 1.01982 153.975 0.885069 152.465 0.831167C150.909 0.773896 149.347 0.755368 147.785 0.750315C144.622 0.738523 141.532 0.762105 138.38 0.864855C134.547 0.989503 130.726 1.14279 126.887 1.24385C124.313 1.31123 121.779 1.35502 119.21 1.2489C118.34 1.21185 117.431 1.23374 116.561 1.23711C114.736 1.24385 112.905 1.26069 111.081 1.27754C105.549 1.32976 100.011 1.39713 94.4787 1.46788C87.9284 1.55042 81.3781 1.638 74.8278 1.72728C69.044 1.80645 63.2603 1.8873 57.4822 1.96647C54.3301 2.01026 51.1779 2.0608 48.0258 2.0928C45.028 2.12312 42.0017 2.04227 39.004 2.00858C32.2992 1.93278 25.5944 1.85698 18.8896 1.78791C13.2603 1.73064 7.62537 1.66158 1.99609 1.65484C1.3382 1.65484 0.674561 1.65484 0.0166628 1.66158C-0.0233763 1.66158 0.0224 2.5038 0.0166627 2.5038C4.64478 2.44821 9.30731 2.53917 13.9354 2.58297C20.8347 2.64866 27.7283 2.72615 34.6218 2.80363C38.8724 2.85079 43.1287 2.92828 47.3793 2.94007C49.6733 2.94681 51.9788 2.88785 54.2672 2.85585C59.5589 2.78342 64.845 2.7093 70.1367 2.63687C76.687 2.54591 83.2431 2.45832 89.7934 2.37242C95.7374 2.29494 101.687 2.22082 107.631 2.15681C111.189 2.11976 114.753 2.06417 118.312 2.08102C119.576 2.08775 120.817 2.16861 122.093 2.16861C125.669 2.16692 129.256 2.02711 132.808 1.90247C136.304 1.78119 139.805 1.62959 143.312 1.58243C144.902 1.56053 146.504 1.58916 148.1 1.59758C151.155 1.61274 154.084 1.75424 157.076 1.94963C158.495 2.04228 159.496 2.43138 160.812 2.59646C161.853 2.72784 162.883 2.67731 163.861 2.52402C167.551 2.69078 171.258 2.72616 174.965 2.56445C179.238 2.3758 183.38 2.00691 187.699 1.93616C196.961 1.78456 206.189 1.62117 215.468 1.60096C224.507 1.58075 233.454 1.47126 242.476 1.24892C251.584 1.0232 260.811 0.740217 269.936 0.945719C278.912 1.14617 287.825 1.64645 296.778 1.93448C305.88 2.22589 314.873 2.20568 323.946 1.78289C332.888 1.36683 341.635 0.927197 350.668 0.876665C360.056 0.824448 369.444 0.965941 378.832 1.04343C383.437 1.08048 387.911 1.06196 392.453 1.3281C396.812 1.58413 401.212 1.74921 405.617 1.86543C414.467 2.10125 423.345 2.1501 432.196 2.39098C436.795 2.51563 441.36 2.74639 445.977 2.75482C450.29 2.76156 454.598 2.65207 458.906 2.61669C468.117 2.54258 477.316 2.43815 486.532 2.42467C505.199 2.39604 523.837 2.62344 542.487 2.87105C551.595 2.99233 560.696 2.92159 569.804 2.90137C578.774 2.88284 587.722 3.15572 596.64 3.49093C605.645 3.8295 614.587 4.10238 623.648 3.96257C632.813 3.82276 641.926 3.39997 651.04 3.03108C669.392 2.28825 687.842 2.36573 706.28 2.44659C710.851 2.4668 715.416 2.4887 719.987 2.50554C719.998 2.50554 720.01 1.66333 719.987 1.66333C701.526 1.59426 683.053 1.43761 664.598 1.73407C646.354 2.02716 628.471 3.47914 610.119 3.08835C601.114 2.89632 592.115 2.50385 583.128 2.2276C574.055 1.94798 564.947 2.10127 555.857 2.0979C537.373 2.09116 518.906 1.66499 500.422 1.59762C491.166 1.56393 481.909 1.57403 472.659 1.64478C463.774 1.71384 454.867 1.92608 445.983 1.91092C436.961 1.89575 427.882 1.42748 418.855 1.28094C410.033 1.13776 401.189 0.996264 392.459 0.484195C383.357 -0.0497712 373.712 0.138885 364.478 0.0647689C355.336 -0.00934689 346.017 -0.0986231 336.915 0.292165C328.008 0.674531 319.215 1.28766 310.216 1.31461C301.24 1.34156 292.316 0.9373 283.409 0.570092C274.421 0.199516 265.577 -0.0194608 256.526 0.108555C247.35 0.238256 238.203 0.553243 229.032 0.704841C219.982 0.854755 210.903 0.738529 201.841 0.841279C197.122 0.89518 192.419 1.01646 187.705 1.09226C183.386 1.163 179.238 1.53358 174.971 1.72055C171.361 1.87889 167.751 1.85025 164.153 1.6936C164.153 1.65654 164.164 1.63127 164.181 1.62791C164.078 1.64643 163.969 1.66328 163.861 1.68012C163.495 1.66328 163.128 1.64643 162.762 1.62791C162.791 1.62791 162.791 1.70034 162.779 1.79972C162.093 1.8452 161.389 1.83341 160.691 1.73571L160.691 1.73402Z"/>
</mask>
<path d="M160.691 1.73402L161.691 1.73402L161.691 0.862703L160.828 0.743437L160.691 1.73402ZM156.939 1.09562L156.888 2.09434L156.89 2.09442L156.939 1.09562ZM152.465 0.831167L152.428 1.83049L152.429 1.83053L152.465 0.831167ZM147.785 0.750315L147.782 1.75031L147.782 1.75031L147.785 0.750315ZM138.38 0.864855L138.413 1.86433L138.413 1.86432L138.38 0.864855ZM126.887 1.24385L126.913 2.24351L126.913 2.24351L126.887 1.24385ZM119.21 1.2489L119.167 2.248L119.169 2.24805L119.21 1.2489ZM116.561 1.23711L116.565 2.23711L116.565 2.23711L116.561 1.23711ZM111.081 1.27754L111.071 0.277581L111.071 0.277583L111.081 1.27754ZM94.4787 1.46788L94.4913 2.4678L94.4915 2.4678L94.4787 1.46788ZM74.8278 1.72728L74.8141 0.727372V0.727373L74.8278 1.72728ZM57.4822 1.96647L57.4686 0.966562L57.4684 0.966565L57.4822 1.96647ZM48.0258 2.0928L48.0359 3.09275V3.09275L48.0258 2.0928ZM39.004 2.00858L38.9927 3.00851L38.9928 3.00851L39.004 2.00858ZM18.8896 1.78791L18.8999 0.787967L18.8998 0.787966L18.8896 1.78791ZM1.99609 1.65484L1.99731 0.654844L1.99609 0.654844L1.99609 1.65484ZM0.0166628 1.66158L0.0166627 2.66163L0.0269166 2.66153L0.0166628 1.66158ZM0.0166627 2.5038L0.00463889 1.50387L0.0166626 3.5038L0.0166627 2.5038ZM13.9354 2.58297L13.9449 1.58301L13.9449 1.58301L13.9354 2.58297ZM34.6218 2.80363L34.6106 3.80357L34.6108 3.80357L34.6218 2.80363ZM47.3793 2.94007L47.3822 1.94007L47.3821 1.94007L47.3793 2.94007ZM54.2672 2.85585L54.2535 1.85594L54.2532 1.85595L54.2672 2.85585ZM70.1367 2.63687L70.1504 3.63678L70.1506 3.63678L70.1367 2.63687ZM89.7934 2.37242L89.7804 1.3725L89.7803 1.3725L89.7934 2.37242ZM107.631 2.15681L107.62 1.15687L107.62 1.15687L107.631 2.15681ZM118.312 2.08102L118.317 1.08103L118.316 1.08103L118.312 2.08102ZM122.093 2.16861L122.093 3.16861L122.094 3.16861L122.093 2.16861ZM132.808 1.90247L132.773 0.903067L132.773 0.90308L132.808 1.90247ZM143.312 1.58243L143.325 2.58233L143.325 2.58233L143.312 1.58243ZM148.1 1.59758L148.095 2.59757L148.095 2.59757L148.1 1.59758ZM157.076 1.94963L157.011 2.94751L157.011 2.94751L157.076 1.94963ZM160.812 2.59646L160.937 1.60432L160.936 1.60423L160.812 2.59646ZM163.861 2.52402L163.906 1.52504L163.805 1.5205L163.706 1.53608L163.861 2.52402ZM174.965 2.56445L175.008 3.5635L175.009 3.56348L174.965 2.56445ZM187.699 1.93616L187.683 0.936294L187.699 1.93616ZM215.468 1.60096L215.47 2.60096L215.47 2.60096L215.468 1.60096ZM242.476 1.24892L242.501 2.24861L242.501 2.24861L242.476 1.24892ZM269.936 0.945719L269.914 1.94547L269.914 1.94547L269.936 0.945719ZM296.778 1.93448L296.746 2.93397L296.746 2.93397L296.778 1.93448ZM323.946 1.78289L323.9 0.783968L323.9 0.783971L323.946 1.78289ZM350.668 0.876665L350.663 -0.123319L350.663 -0.123319L350.668 0.876665ZM378.832 1.04343L378.824 2.04339L378.824 2.04339L378.832 1.04343ZM392.453 1.3281L392.512 0.329817L392.512 0.329809L392.453 1.3281ZM405.617 1.86543L405.643 0.865788L405.643 0.865781L405.617 1.86543ZM432.196 2.39098L432.168 3.39061L432.168 3.39061L432.196 2.39098ZM445.977 2.75482L445.975 3.75482L445.975 3.75482L445.977 2.75482ZM458.906 2.61669L458.898 1.61673L458.898 1.61673L458.906 2.61669ZM486.532 2.42467L486.533 3.42467L486.533 3.42467L486.532 2.42467ZM542.487 2.87105L542.5 1.87114L542.5 1.87114L542.487 2.87105ZM569.804 2.90137L569.802 1.90138L569.802 1.90138L569.804 2.90137ZM596.64 3.49093L596.678 2.49163L596.678 2.49163L596.64 3.49093ZM623.648 3.96257L623.633 2.96269L623.633 2.96269L623.648 3.96257ZM651.04 3.03108L650.999 2.0319V2.0319L651.04 3.03108ZM706.28 2.44659L706.284 1.4466L706.284 1.4466L706.28 2.44659ZM719.987 2.50554L719.983 3.50554L719.987 3.50554L719.987 2.50554ZM719.987 1.66333L719.983 2.66333L719.987 2.66333L719.987 1.66333ZM664.598 1.73407L664.582 0.734198V0.734198L664.598 1.73407ZM610.119 3.08835L610.097 4.08812L610.097 4.08812L610.119 3.08835ZM583.128 2.2276L583.097 3.22713L583.097 3.22713L583.128 2.2276ZM555.857 2.0979L555.857 1.0979L555.857 1.0979L555.857 2.0979ZM500.422 1.59762L500.426 0.597622L500.422 1.59762ZM472.659 1.64478L472.651 0.644806L472.651 0.644807L472.659 1.64478ZM445.983 1.91092L445.984 0.910917L445.984 0.910917L445.983 1.91092ZM418.855 1.28094L418.871 0.281067L418.871 0.281067L418.855 1.28094ZM392.459 0.484195L392.4 1.48248L392.4 1.48248L392.459 0.484195ZM364.478 0.0647689L364.47 1.06474L364.47 1.06474L364.478 0.0647689ZM336.915 0.292165L336.958 1.29124L336.958 1.29124L336.915 0.292165ZM310.216 1.31461L310.213 0.314619L310.213 0.314619L310.216 1.31461ZM283.409 0.570092L283.367 1.56924L283.367 1.56924L283.409 0.570092ZM256.526 0.108555L256.541 1.10846V1.10846L256.526 0.108555ZM229.032 0.704841L229.016 -0.295022L229.016 -0.295022L229.032 0.704841ZM201.841 0.841279L201.83 -0.158657L201.83 -0.158656L201.841 0.841279ZM187.705 1.09226L187.689 0.0923872L187.689 0.0923922L187.705 1.09226ZM174.971 1.72055L174.927 0.72151L174.927 0.721512L174.971 1.72055ZM164.153 1.6936L163.153 1.6936L163.153 2.65101L164.109 2.69265L164.153 1.6936ZM164.181 1.62791L164.374 2.60918L164.004 0.643712L164.181 1.62791ZM163.861 1.68012L163.815 2.67907L163.915 2.68367L164.014 2.66833L163.861 1.68012ZM162.762 1.62791L162.762 0.627906L162.712 2.62663L162.762 1.62791ZM162.779 1.79972L162.846 2.79753L163.678 2.74241L163.773 1.91409L162.779 1.79972ZM160.691 1.73571L159.691 1.73571L159.691 2.60548L160.553 2.72605L160.691 1.73571ZM160.828 0.743437C160.225 0.660069 159.705 0.531613 159.077 0.396212C158.463 0.263809 157.789 0.13615 156.988 0.0968255L156.89 2.09442C157.53 2.12584 158.08 2.22727 158.656 2.35132C159.217 2.47237 159.854 2.62775 160.555 2.72461L160.828 0.743437ZM156.989 0.0969097C155.573 0.025027 153.997 -0.114781 152.501 -0.168197L152.429 1.83053C153.953 1.88492 155.318 2.01462 156.888 2.09434L156.989 0.0969097ZM152.502 -0.168156C150.93 -0.226015 149.355 -0.24461 147.789 -0.24968L147.782 1.75031C149.339 1.75535 150.888 1.77381 152.428 1.83049L152.502 -0.168156ZM147.789 -0.249679C144.618 -0.261497 141.516 -0.237891 138.348 -0.134614L138.413 1.86432C141.549 1.7621 144.625 1.73854 147.782 1.75031L147.789 -0.249679ZM138.348 -0.134616C134.504 -0.00960605 130.696 0.143213 126.861 0.244198L126.913 2.24351C130.755 2.14236 134.591 1.98861 138.413 1.86433L138.348 -0.134616ZM126.861 0.244194C124.29 0.311493 121.784 0.354392 119.251 0.249757L119.169 2.24805C121.773 2.35566 124.336 2.31097 126.913 2.24351L126.861 0.244194ZM119.252 0.249811C118.352 0.211436 117.399 0.233861 116.557 0.237121L116.565 2.23711C117.463 2.23363 118.329 2.21226 119.167 2.248L119.252 0.249811ZM116.557 0.23712C114.729 0.243869 112.896 0.260741 111.071 0.277581L111.09 2.2775C112.915 2.26065 114.743 2.24383 116.565 2.23711L116.557 0.23712ZM111.071 0.277583C105.537 0.329816 99.9983 0.397211 94.4659 0.467961L94.4915 2.4678C100.023 2.39706 105.56 2.3297 111.09 2.27749L111.071 0.277583ZM94.4661 0.467959C87.9153 0.550501 81.3646 0.638096 74.8141 0.727372L74.8414 2.72719C81.3915 2.63791 87.9415 2.55033 94.4913 2.4678L94.4661 0.467959ZM74.8141 0.727373C69.0321 0.806516 63.2444 0.887424 57.4686 0.966562L57.496 2.96637C63.2762 2.88718 69.0559 2.80638 74.8414 2.72719L74.8141 0.727373ZM57.4684 0.966565C54.3134 1.0104 51.1653 1.06087 48.0156 1.09285L48.0359 3.09275C51.1906 3.06072 54.3469 3.01013 57.4962 2.96637L57.4684 0.966565ZM48.0156 1.09285C45.0318 1.12303 42.0341 1.04257 39.0153 1.00864L38.9928 3.00851C41.9693 3.04197 45.0243 3.12321 48.0359 3.09275L48.0156 1.09285ZM39.0153 1.00864C32.3106 0.932842 25.6053 0.857035 18.8999 0.787967L18.8793 2.78786C25.5835 2.85692 32.2878 2.93271 38.9927 3.00851L39.0153 1.00864ZM18.8998 0.787966C13.2735 0.730725 7.63232 0.661589 1.99731 0.654844L1.99487 2.65484C7.61841 2.66157 13.2471 2.73056 18.8795 2.78786L18.8998 0.787966ZM1.99609 0.654844C1.33911 0.654843 0.670288 0.654833 0.00640898 0.661632L0.0269166 2.66153C0.678772 2.65485 1.33734 2.65484 1.99609 2.65484L1.99609 0.654844ZM0.0166629 0.66158C-0.474975 0.66158 -0.738647 0.991657 -0.812744 1.10013C-0.898315 1.22548 -0.934692 1.34072 -0.947082 1.3815C-0.975891 1.4768 -0.98529 1.55868 -0.988342 1.58591C-0.996399 1.65741 -0.998413 1.72867 -0.999267 1.77507C-1.00116 1.87803 -0.998779 2.00231 -0.995849 2.10985C-0.992859 2.22067 -0.988708 2.33113 -0.985901 2.4084C-0.984436 2.44899 -0.983459 2.47713 -0.982971 2.49477C-0.982727 2.50501 -0.982849 2.50342 -0.982849 2.49615C-0.982849 2.49551 -0.982971 2.47596 -0.981628 2.44974C-0.981262 2.44231 -0.979248 2.39944 -0.970581 2.34519C-0.96759 2.32675 -0.955139 2.24693 -0.918884 2.15074C-0.902527 2.10743 -0.857239 1.99366 -0.759643 1.87349C-0.663757 1.75533 -0.407348 1.5038 0.0166628 1.5038L0.0166626 3.5038C0.440674 3.5038 0.697144 3.25224 0.793091 3.13403C0.890686 3.0138 0.936035 2.89996 0.952454 2.85655C0.98877 2.76016 1.00128 2.68002 1.00433 2.66118C1.01312 2.60612 1.01526 2.56204 1.01569 2.55302C1.01721 2.52362 1.01715 2.49934 1.01715 2.49253C1.01709 2.47292 1.0166 2.45324 1.0163 2.44045C1.0155 2.41203 1.01416 2.37437 1.01276 2.336C1.00983 2.25535 1.0061 2.15526 1.00342 2.05553C1.00061 1.95251 0.99939 1.86624 1.00037 1.81129C1.00098 1.77872 1.00195 1.78419 0.999085 1.80962C0.998657 1.81383 0.992371 1.87762 0.967285 1.96058C0.956787 1.99519 0.922424 2.1057 0.838989 2.22787C0.767151 2.33315 0.505798 2.66158 0.0166627 2.66158L0.0166629 0.66158ZM0.0286866 3.50372C4.64252 3.44831 9.2843 3.539 13.926 3.58292L13.9449 1.58301C9.33026 1.53934 4.64709 1.44811 0.00463889 1.50387L0.0286866 3.50372ZM13.9259 3.58292C20.8242 3.64861 27.7169 3.72608 34.6106 3.80357L34.6331 1.80369C27.7396 1.72621 20.8453 1.64871 13.9449 1.58301L13.9259 3.58292ZM34.6108 3.80357C38.8515 3.85062 43.1207 3.92826 47.3765 3.94007L47.3821 1.94007C43.1367 1.9283 38.8934 1.85097 34.6329 1.80369L34.6108 3.80357ZM47.3763 3.94007C49.6815 3.94684 52.0085 3.88754 54.2811 3.85575L54.2532 1.85595C51.9492 1.88817 49.6652 1.94678 47.3822 1.94007L47.3763 3.94007ZM54.2809 3.85576C56.9268 3.81954 59.5714 3.7829 62.2158 3.74627C64.8602 3.70963 67.5046 3.67299 70.1504 3.63678L70.123 1.63697C67.4771 1.67318 64.8325 1.70982 62.1881 1.74646C59.5436 1.78309 56.8993 1.81973 54.2535 1.85594L54.2809 3.85576ZM70.1506 3.63678C76.7006 3.54582 83.2563 3.45824 89.8065 3.37233L89.7803 1.3725C83.2298 1.45841 76.6735 1.54601 70.1228 1.63697L70.1506 3.63678ZM89.8065 3.37233C95.7501 3.29486 101.699 3.22075 107.642 3.15676L107.62 1.15687C101.675 1.22089 95.7247 1.29502 89.7804 1.3725L89.8065 3.37233ZM107.641 3.15676C111.207 3.11963 114.759 3.06421 118.307 3.081L118.316 1.08103C114.748 1.06413 111.172 1.11988 107.62 1.15687L107.641 3.15676ZM118.306 3.081C118.922 3.08428 119.533 3.1056 120.165 3.12678C120.791 3.14779 121.436 3.16861 122.093 3.16861L122.093 1.16861C121.474 1.16861 120.861 1.149 120.232 1.1279C119.607 1.10697 118.966 1.08449 118.317 1.08103L118.306 3.081ZM122.094 3.16861C125.69 3.16691 129.298 3.02625 132.843 2.90185L132.773 0.90308C129.214 1.02797 125.647 1.16693 122.093 1.16861L122.094 3.16861ZM132.843 2.90186C136.35 2.78019 139.832 2.62931 143.325 2.58233L143.298 0.582516C139.777 0.629869 136.257 0.782187 132.773 0.903067L132.843 2.90186ZM143.325 2.58233C144.903 2.56061 146.481 2.58906 148.095 2.59757L148.105 0.597599C146.526 0.589266 144.901 0.56045 143.298 0.58252L143.325 2.58233ZM148.095 2.59757C151.122 2.6126 154.029 2.75281 157.011 2.94751L157.141 0.951759C154.138 0.755665 151.187 0.612894 148.105 0.597597L148.095 2.59757ZM157.011 2.94751C157.643 2.9888 158.189 3.09599 158.769 3.22279C159.338 3.3472 159.973 3.49903 160.687 3.58868L160.936 1.60423C160.335 1.5288 159.811 1.40355 159.196 1.26897C158.592 1.1368 157.927 1.00311 157.141 0.951758L157.011 2.94751ZM160.686 3.58859C161.84 3.73414 162.966 3.67644 164.016 3.51197L163.706 1.53608C162.799 1.67818 161.866 1.72154 160.937 1.60432L160.686 3.58859ZM163.816 3.52301C167.529 3.69083 171.266 3.72674 175.008 3.5635L174.921 1.5654C171.249 1.72558 167.572 1.69074 163.906 1.52504L163.816 3.52301ZM175.009 3.56348C179.351 3.37178 183.404 3.00664 187.716 2.93603L187.683 0.936294C183.356 1.00717 179.125 1.37981 174.921 1.56542L175.009 3.56348ZM187.716 2.93603C196.98 2.78439 206.2 2.62115 215.47 2.60096L215.466 0.600961C206.178 0.621193 196.943 0.784737 187.683 0.936294L187.716 2.93603ZM215.47 2.60096C224.516 2.58073 233.471 2.47116 242.501 2.24861L242.452 0.249219C233.438 0.47136 224.498 0.580764 215.466 0.600961L215.47 2.60096ZM242.501 2.24861C251.619 2.02264 260.818 1.74062 269.914 1.94547L269.959 -0.0540278C260.805 -0.26019 251.549 0.0237625 242.451 0.249222L242.501 2.24861ZM269.914 1.94547C278.895 2.14604 287.749 2.64452 296.746 2.93397L296.81 0.935002C287.901 0.648375 278.929 0.146292 269.958 -0.0540316L269.914 1.94547ZM296.746 2.93397C305.871 3.22611 314.89 3.20597 323.993 2.7818L323.9 0.783971C314.856 1.20539 305.889 1.22568 296.81 0.934997L296.746 2.93397ZM323.993 2.78181C332.941 2.36544 341.666 1.92704 350.674 1.87665L350.663 -0.123319C341.605 -0.0726482 332.835 0.368231 323.9 0.783968L323.993 2.78181ZM350.674 1.87665C360.052 1.82448 369.427 1.96583 378.824 2.04339L378.84 0.0434599C369.461 -0.03395 360.06 -0.175588 350.663 -0.123319L350.674 1.87665ZM378.824 2.04339C383.446 2.08059 387.885 2.06214 392.395 2.32638L392.512 0.329809C387.937 0.0617679 383.428 0.0803789 378.84 0.0434582L378.824 2.04339ZM392.394 2.32638C396.768 2.58323 401.178 2.74867 405.59 2.86509L405.643 0.865781C401.245 0.749742 396.857 0.585037 392.512 0.329817L392.394 2.32638ZM405.59 2.86508C410.021 2.98315 414.459 3.0544 418.89 3.12618C423.323 3.19799 427.75 3.27034 432.168 3.39061L432.223 1.39135C427.791 1.27074 423.354 1.19823 418.922 1.12644C414.489 1.05463 410.062 0.983535 405.643 0.865788L405.59 2.86508ZM432.168 3.39061C436.736 3.51438 441.343 3.74636 445.975 3.75482L445.979 1.75482C441.377 1.74642 436.855 1.51687 432.223 1.39134L432.168 3.39061ZM445.975 3.75482C450.29 3.76156 454.635 3.6518 458.914 3.61666L458.898 1.61673C454.562 1.65233 450.291 1.76155 445.979 1.75482L445.975 3.75482ZM458.914 3.61666C468.129 3.54251 477.321 3.43814 486.533 3.42467L486.53 1.42467C477.31 1.43815 468.104 1.54265 458.898 1.61673L458.914 3.61666ZM486.533 3.42467C505.192 3.39605 523.824 3.62335 542.474 3.87096L542.5 1.87114C523.851 1.62353 505.206 1.39603 486.53 1.42467L486.533 3.42467ZM542.474 3.87096C551.592 3.99238 560.706 3.92157 569.806 3.90137L569.802 1.90138C560.687 1.9216 551.598 1.99228 542.5 1.87114L542.474 3.87096ZM569.806 3.90137C578.756 3.88288 587.687 4.15515 596.603 4.49022L596.678 2.49163C587.756 2.1563 578.792 1.88281 569.802 1.90138L569.806 3.90137ZM596.603 4.49022C605.61 4.82889 614.574 5.10269 623.664 4.96245L623.633 2.96269C614.599 3.10206 605.68 2.83011 596.678 2.49163L596.603 4.49022ZM623.664 4.96246C632.844 4.8224 641.975 4.39881 651.08 4.03026L650.999 2.0319C641.877 2.40113 632.782 2.82313 623.633 2.96269L623.664 4.96246ZM651.08 4.03026C669.406 3.28849 687.834 3.36571 706.275 3.44658L706.284 1.4466C687.85 1.36576 669.378 1.28801 650.999 2.0319L651.08 4.03026ZM706.275 3.44658C710.846 3.46679 715.412 3.48869 719.983 3.50554L719.99 1.50555C715.42 1.48871 710.856 1.46681 706.284 1.4466L706.275 3.44658ZM719.987 3.50554C720.399 3.50554 720.65 3.26639 720.739 3.16438C720.835 3.05474 720.884 2.95013 720.902 2.90867C720.942 2.81762 720.959 2.74101 720.964 2.72145C720.976 2.6666 720.981 2.62163 720.982 2.60991C720.986 2.57565 720.988 2.54445 720.989 2.52844C720.992 2.49053 720.993 2.44599 720.994 2.40337C720.997 2.31517 720.999 2.20213 721 2.09123C721 1.98152 721 1.86428 720.998 1.77003C720.997 1.72591 720.995 1.67067 720.991 1.61924C720.989 1.59909 720.985 1.54679 720.973 1.48637C720.969 1.46446 720.954 1.38386 720.915 1.2885C720.897 1.24525 720.85 1.13528 720.753 1.01977C720.659 0.909071 720.405 0.663328 719.987 0.663328L719.987 2.66333C719.569 2.66333 719.315 2.418 719.223 2.3081C719.126 2.19341 719.08 2.08465 719.063 2.04298C719.025 1.95082 719.011 1.87495 719.008 1.8592C719.003 1.83087 719 1.80941 718.999 1.80039C718.998 1.78978 718.997 1.78245 718.997 1.7798C718.997 1.77442 718.997 1.78498 718.998 1.81982C719 1.88349 719 1.9768 719 2.07764C718.999 2.17729 718.997 2.27481 718.995 2.34453C718.994 2.38086 718.993 2.40212 718.993 2.41027C718.992 2.41729 718.993 2.40419 718.995 2.38226C718.996 2.37671 719 2.33647 719.012 2.28481C719.016 2.26684 719.033 2.19143 719.072 2.1012C719.091 2.06014 719.139 1.95584 719.235 1.8464C719.324 1.7446 719.575 1.50554 719.987 1.50554L719.987 3.50554ZM719.991 0.663335C701.536 0.594297 683.05 0.437534 664.582 0.734198L664.614 2.73394C683.057 2.43769 701.515 2.59423 719.983 2.66332L719.991 0.663335ZM664.582 0.734198C646.234 1.02895 628.486 2.47923 610.14 2.08858L610.097 4.08812C628.456 4.47905 646.474 3.02536 664.614 2.73394L664.582 0.734198ZM610.14 2.08858C601.139 1.89663 592.165 1.50492 583.158 1.22807L583.097 3.22713C592.065 3.50278 601.089 3.89601 610.097 4.08812L610.14 2.08858ZM583.159 1.22808C574.065 0.947835 564.924 1.10126 555.857 1.0979L555.856 3.0979C564.97 3.10128 574.044 2.94813 583.097 3.22713L583.159 1.22808ZM555.857 1.0979C537.343 1.09115 518.968 0.665213 500.426 0.597622L500.418 2.59761C518.844 2.66478 537.402 3.09117 555.856 3.0979L555.857 1.0979ZM500.426 0.597622C491.166 0.563921 481.906 0.574028 472.651 0.644806L472.666 2.64475C481.913 2.57404 491.165 2.56393 500.418 2.59761L500.426 0.597622ZM472.651 0.644807C463.741 0.71407 454.867 0.926075 445.984 0.910917L445.981 2.91091C454.867 2.92608 463.808 2.71361 472.667 2.64475L472.651 0.644807ZM445.984 0.910917C436.954 0.895742 427.964 0.428676 418.871 0.281067L418.838 2.2808C427.8 2.42629 436.968 2.89577 445.981 2.91091L445.984 0.910917ZM418.871 0.281067C410.045 0.137825 401.222 -0.0034754 392.517 -0.514089L392.4 1.48248C401.155 1.996 410.021 2.13769 418.838 2.2808L418.871 0.281067ZM392.517 -0.514089C383.382 -1.05002 373.681 -0.861395 364.486 -0.935199L364.47 1.06474C373.742 1.13916 383.332 0.950482 392.4 1.48248L392.517 -0.514089ZM364.486 -0.935198C355.351 -1.00926 346.005 -1.099 336.872 -0.706915L336.958 1.29124C346.03 0.901758 355.322 0.990571 364.47 1.06474L364.486 -0.935198ZM336.872 -0.706915C327.93 -0.323034 319.186 0.287747 310.213 0.314619L310.219 2.31461C319.244 2.28758 328.086 1.67209 336.958 1.29124L336.872 -0.706915ZM310.213 0.314619C301.264 0.341488 292.365 -0.0615313 283.45 -0.429059L283.367 1.56924C292.267 1.93613 301.216 2.34164 310.219 2.31461L310.213 0.314619ZM283.45 -0.429059C274.452 -0.800063 265.588 -1.01972 256.512 -0.891345L256.541 1.10846C265.566 0.980794 274.39 1.19909 283.367 1.56924L283.45 -0.429059ZM256.512 -0.891345C247.373 -0.762168 238.124 -0.445588 229.016 -0.295022L229.049 1.7047C238.282 1.55207 247.327 1.23868 256.541 1.10846L256.512 -0.891345ZM229.016 -0.295022C219.939 -0.144674 210.954 -0.262108 201.83 -0.158657L201.853 1.84121C210.852 1.73917 220.025 1.85418 229.049 1.7047L229.016 -0.295022ZM201.83 -0.158656C197.111 -0.104763 192.386 0.016858 187.689 0.0923872L187.721 2.09213C192.452 2.01606 197.132 1.89512 201.853 1.84121L201.83 -0.158656ZM187.689 0.0923922C183.363 0.16325 179.124 0.537625 174.927 0.72151L175.014 2.71959C179.353 2.52953 183.409 2.16276 187.721 2.09212L187.689 0.0923922ZM174.927 0.721512C171.351 0.878348 167.771 0.850175 164.196 0.694545L164.109 2.69265C167.731 2.85033 171.37 2.87943 175.014 2.71959L174.927 0.721512ZM165.153 1.6936C165.153 1.76452 165.143 1.89694 165.076 2.05094C165.016 2.18653 164.821 2.52144 164.374 2.60918L163.988 0.646632C163.524 0.73774 163.315 1.08696 163.245 1.2453C163.167 1.42204 163.153 1.58562 163.153 1.6936L165.153 1.6936ZM164.004 0.643712C163.915 0.659705 163.819 0.674695 163.708 0.691919L164.014 2.66833C164.12 2.65186 164.241 2.63316 164.358 2.6121L164.004 0.643712ZM163.907 0.68118C163.54 0.664318 163.176 0.647577 162.813 0.629184L162.712 2.62663C163.081 2.64529 163.449 2.66224 163.815 2.67907L163.907 0.68118ZM162.762 2.62791C162.535 2.62791 162.319 2.54957 162.147 2.41168C161.991 2.28708 161.91 2.1454 161.87 2.05905C161.798 1.90102 161.79 1.76806 161.788 1.74649C161.784 1.67879 161.791 1.64391 161.786 1.68534L163.773 1.91409C163.78 1.85615 163.793 1.73535 163.784 1.6066C163.78 1.55449 163.767 1.39721 163.687 1.2225C163.596 1.02396 163.313 0.627906 162.762 0.627906L162.762 2.62791ZM162.713 0.801905C162.082 0.843721 161.448 0.831917 160.83 0.745365L160.553 2.72605C161.33 2.8349 162.104 2.84667 162.846 2.79753L162.713 0.801905ZM161.691 1.73571L161.691 1.73402L159.691 1.73402L159.691 1.73571L161.691 1.73571Z" fill="#C7B79F" mask="url(#path-1-inside-1_2364_3784)"/>
</svg>
