<svg width="32" height="32" viewBox="0 0 32 32" fill="none" xmlns="http://www.w3.org/2000/svg">
<path d="M30.7135 24.8139L19.7275 14.2409C18.73 13.2809 17.4509 12.7514 16.0651 12.7499C14.6815 12.7499 13.331 13.2765 12.3329 14.233L1.29822 24.8078C0.041624 26.012 -0.33631 27.7626 0.311952 29.3763C0.952152 30.97 2.47738 31.9999 4.19764 31.9999H27.8076C31.5315 32.0232 33.4401 27.3804 30.7135 24.8139ZM29.3733 28.4459C29.2737 28.6932 28.8664 29.4999 27.8076 29.4999H4.19764C3.13771 29.4999 2.73078 28.6919 2.63129 28.4442C2.5325 28.1984 2.26923 27.3396 3.02754 26.6129L14.0622 16.0381C15.1659 14.9805 16.8931 14.9824 17.9944 16.0423L28.9804 26.6154C29.7362 27.3429 29.4722 28.2004 29.3733 28.4459ZM20.4592 21.4396C20.9411 21.9338 20.9313 22.7252 20.4371 23.2072L18.643 24.9574C18.6404 24.96 18.6377 24.9626 18.635 24.9652C17.7118 25.8499 16.267 25.8484 15.3456 24.9617L13.6137 23.2949L9.53914 27.1572C9.03892 27.6314 8.24774 27.6115 7.77233 27.1097C7.29754 26.6086 7.31878 25.8175 7.81976 25.3426L11.9747 21.4042C12.8981 20.5226 14.3406 20.5251 15.2609 21.4107L16.9915 23.0763L18.6917 21.4176C19.186 20.9355 19.9772 20.9454 20.4592 21.4396ZM16.3151 10.25C15.6248 10.25 15.0653 9.69033 15.0653 8.99996V3.74998C15.0653 1.68224 16.7473 4.85134e-07 18.8146 4.85134e-07H22.8227C23.6931 -0.000562012 24.4675 0.488061 24.8428 1.27518C25.2206 2.06768 25.1108 2.98467 24.5564 3.66823C24.5389 3.68973 24.5208 3.71067 24.502 3.73098L24.0283 4.24148L24.5588 4.79998C24.5829 4.82542 24.6059 4.85179 24.6279 4.87917C25.8099 6.32085 24.7556 8.5779 22.8848 8.56246H20.8143C19.1561 8.49646 19.1574 6.12791 20.8143 6.06247H22.3103L21.408 5.11241C20.9536 4.6341 20.9493 3.88492 21.398 3.4013L22.2342 2.49999H18.8147C18.1256 2.49999 17.5649 3.06074 17.5649 3.74998V8.99996C17.5649 9.69033 17.0053 10.25 16.3151 10.25Z" fill="#1E3D1E"/>
</svg>
