<svg width="98" height="98" viewBox="0 0 98 98" fill="none" xmlns="http://www.w3.org/2000/svg">
<path d="M25.2656 60.6836C25.2656 63.325 23.1219 65.4688 20.4805 65.4688C14.1258 65.2199 14.1258 56.1473 20.4805 55.8984C23.1219 55.8984 25.2656 58.0422 25.2656 60.6836ZM34.6445 63.9375C32.0031 63.9375 29.8594 66.0812 29.8594 68.7227C30.1082 75.0773 39.1809 75.0773 39.4297 68.7227C39.4297 66.0812 37.2859 63.9375 34.6445 63.9375ZM48.8086 72.168C46.1672 72.168 44.0234 74.3117 44.0234 76.9531C44.2723 83.3078 53.3449 83.3078 53.5938 76.9531C53.5938 74.3117 51.45 72.168 48.8086 72.168ZM63.1641 80.3984C60.5227 80.3984 58.3789 82.5422 58.3789 85.1836C58.6277 91.5383 67.7004 91.5383 67.9492 85.1836C67.9492 82.5422 65.8055 80.3984 63.1641 80.3984ZM77.5195 88.4375C74.8781 88.4375 72.7344 90.5812 72.7344 93.2227C72.9832 99.5773 82.0559 99.5773 82.3047 93.2227C82.3047 90.5812 80.1609 88.4375 77.5195 88.4375ZM28.4813 44.3566C36.7691 33.8484 40.9609 25.8094 40.9609 20.5074C40.9609 9.19531 31.7734 0.0078125 20.4805 0.0078125C9.1875 0.0078125 0 9.19531 0 20.5074C0 25.8094 4.1918 33.8293 12.4797 44.3566C14.4129 46.8258 17.3414 48.2422 20.4805 48.2422C23.6195 48.2422 26.5289 46.8258 28.4813 44.3566ZM33.3047 20.5074C33.3047 23.0914 30.4527 29.4652 22.4711 39.6098C21.4184 40.8922 19.5617 40.9113 18.509 39.6098C10.5082 29.4652 7.65625 23.0914 7.65625 20.5074C7.65625 13.4254 13.4176 7.64492 20.4805 7.64492C27.5434 7.64492 33.3047 13.4254 33.3047 20.5074ZM85.5203 74.9816C93.8082 64.4734 98 56.4344 98 51.1324C98 39.8203 88.8125 30.6137 77.5195 30.6137C66.2266 30.6137 57.0391 39.8203 57.0391 51.1324C57.0391 56.4344 61.2309 64.4543 69.5188 74.9816C71.452 77.4508 74.3805 78.8672 77.5195 78.8672C80.6586 78.8672 83.568 77.4508 85.5203 74.9816ZM90.3438 51.1324C90.3438 53.7164 87.4918 60.0902 79.5102 70.2348C78.4574 71.5172 76.6008 71.5363 75.548 70.2348C67.5473 60.0902 64.7145 53.7164 64.7145 51.1324C64.7145 44.0504 70.4758 38.2699 77.5387 38.2699C84.6016 38.2699 90.3438 44.0504 90.3438 51.1324ZM20.4805 15.3203C23.1219 15.3203 25.2656 17.4641 25.2656 20.1055C25.0168 26.4602 15.9441 26.4602 15.6953 20.1055C15.6953 17.4641 17.8391 15.3203 20.4805 15.3203ZM72.7344 50.7305C72.7344 53.3719 74.8781 55.5156 77.5195 55.5156C83.8742 55.2668 83.8742 46.1941 77.5195 45.9453C74.8781 45.9453 72.7344 48.0891 72.7344 50.7305Z" fill="#ECDECA"/>
</svg>
